<svg width="350" height="1098" viewBox="0 0 350 1098" fill="none" xmlns="http://www.w3.org/2000/svg">
<path d="M280.938 575.197C281.26 575.384 279.893 578.012 277.024 580.076C274.155 582.141 271.232 582.758 271.152 582.302C271.072 581.846 273.538 580.908 276.193 578.95C278.847 576.993 280.617 574.955 280.938 575.197Z" fill="#23319E"/>
<path d="M227.877 965.5L226.724 1034.08L241.471 1088.59C241.721 1089.52 241.78 1090.49 241.643 1091.44C241.506 1092.39 241.176 1093.3 240.674 1094.12C240.172 1094.94 239.508 1095.65 238.723 1096.2C237.938 1096.75 237.048 1097.14 236.109 1097.33C235.01 1097.55 233.876 1097.5 232.799 1097.19C231.722 1096.89 230.734 1096.33 229.915 1095.56C219.378 1085.59 180.822 1048.7 181.198 1043.68C181.627 1037.87 177.605 971.291 177.605 971.291L227.877 965.5Z" fill="#2C1F4A"/>
<path d="M236.135 1097.33L181.198 1039.05V1041.97C181.245 1044.49 182.196 1046.92 183.879 1048.8C188.249 1053.9 200.69 1067.57 229.835 1095.56C230.677 1096.36 231.702 1096.94 232.819 1097.25C233.936 1097.55 235.111 1097.58 236.243 1097.33H236.135Z" fill="#FF5156"/>
<g opacity="0.6">
<path d="M195.059 1016.84C195.908 1017.46 196.498 1018.37 196.716 1019.39C196.934 1020.42 196.764 1021.49 196.239 1022.39C195.661 1023.23 194.79 1023.82 193.797 1024.05C192.805 1024.28 191.763 1024.13 190.877 1023.63C189.974 1022.97 189.347 1022.01 189.119 1020.92C188.891 1019.83 189.078 1018.69 189.643 1017.73C190.345 1016.89 191.346 1016.35 192.436 1016.23C193.526 1016.11 194.62 1016.42 195.488 1017.09" fill="white"/>
</g>
<path d="M220.182 1067.47C220.584 1067.65 222.086 1064.03 226.161 1062.1C228.67 1061.1 231.343 1060.58 234.044 1060.55C234.044 1060.39 233.24 1059.85 231.631 1059.64C229.519 1059.42 227.389 1059.81 225.491 1060.76C223.584 1061.7 221.991 1063.17 220.906 1065C220.048 1066.39 220.048 1067.41 220.182 1067.47Z" fill="white"/>
<path d="M225.116 1076.61C225.464 1076.9 227.636 1074.65 231.175 1073.63C233.389 1073.2 235.628 1072.89 237.878 1072.72C236.824 1072.07 235.63 1071.68 234.394 1071.58C233.158 1071.48 231.916 1071.68 230.773 1072.16C226.724 1073.39 224.767 1076.42 225.116 1076.61Z" fill="white"/>
<path d="M211.012 1055.75C213.882 1053.73 216.903 1051.94 220.048 1050.39C223.372 1049.33 226.768 1048.51 230.21 1047.95C226.609 1047.27 222.889 1047.63 219.488 1048.99C216.087 1050.36 213.146 1052.66 211.012 1055.64V1055.75Z" fill="white"/>
<path d="M209.618 1034.86C209.806 1035.26 213.586 1033.66 218.52 1033.47C223.453 1033.28 227.368 1034.41 227.502 1033.98C224.81 1032.27 221.605 1031.55 218.439 1031.94C215.246 1031.84 212.122 1032.88 209.618 1034.86Z" fill="white"/>
<path d="M209.323 1014.73C212.242 1013.51 215.386 1012.92 218.548 1013.01C221.709 1013.1 224.816 1013.86 227.663 1015.24C227.663 1015.24 227.019 1014.24 225.437 1013.33C223.337 1012.19 220.992 1011.56 218.6 1011.51C216.211 1011.42 213.836 1011.92 211.683 1012.96C210.155 1013.76 209.323 1014.57 209.323 1014.73Z" fill="white"/>
<path d="M68.1579 961.826L69.1768 1018.51C69.1768 1018.51 11.8794 1038.56 11.0482 1049.07L120.978 1051.08L123.042 962.604L68.1579 961.826Z" fill="#2C1F4A"/>
<path d="M103.255 1014.38C104.307 1014.72 105.197 1015.43 105.756 1016.39C106.315 1017.34 106.503 1018.47 106.285 1019.55C105.983 1020.62 105.283 1021.53 104.329 1022.09C103.376 1022.65 102.243 1022.83 101.164 1022.58C100.051 1022.22 99.1127 1021.45 98.5287 1020.44C97.9447 1019.43 97.7563 1018.23 97.9998 1017.09C98.4111 1015.99 99.231 1015.1 100.286 1014.6C101.342 1014.1 102.55 1014.03 103.657 1014.4" fill="#E0E0E0"/>
<path d="M121.031 1051.08L120.897 1042.16L15.4991 1043.58C15.4991 1043.58 10.5656 1045.61 11.0482 1049.07L121.031 1051.08Z" fill="#455A64"/>
<path d="M67.3803 1017.92C67.3803 1018.45 70.0615 1018.75 72.7427 1020.6C75.4239 1022.45 76.7109 1024.67 77.2203 1024.46C77.7298 1024.24 76.979 1021.13 73.7884 1019.1C70.5978 1017.06 67.2194 1017.43 67.3803 1017.92Z" fill="white"/>
<path d="M55.7708 1022.48C55.6368 1023.01 57.9426 1023.95 59.739 1026.26C61.5354 1028.56 61.9912 1030.97 62.4202 1030.97C62.8492 1030.97 63.3586 1027.92 61.0796 1025.1C58.8006 1022.29 55.7977 1021.97 55.7708 1022.48Z" fill="white"/>
<path d="M48.9606 1036.18C49.4432 1036.18 50.2475 1033.63 48.9606 1030.65C47.6736 1027.68 45.1265 1026.47 44.8852 1026.93C44.6439 1027.38 46.1989 1028.96 47.2446 1031.4C48.2902 1033.84 48.4511 1036.12 48.9606 1036.18Z" fill="white"/>
<path d="M68.587 1004.97C68.8015 1005.48 71.2682 1004.78 74.3247 1004.97C77.3813 1005.15 79.6872 1006.23 79.9821 1005.77C80.2771 1005.32 78.0517 1003.36 74.4588 1003.09C70.866 1002.82 68.3457 1004.56 68.587 1004.97Z" fill="white"/>
<path d="M144.143 133.334C147.602 131.323 151.946 131.404 155.431 129.473C157.127 128.414 158.587 127.018 159.722 125.371C160.856 123.725 161.641 121.863 162.027 119.901C162.769 115.978 162.923 111.966 162.483 107.997L187.337 154.623C184.157 158.822 180.208 162.379 175.701 165.106C173.438 166.456 170.872 167.215 168.239 167.314C165.606 167.412 162.99 166.847 160.633 165.67C156.101 162.988 153.93 156.393 157.013 152.263C154.425 153.813 151.359 154.361 148.394 153.802C145.43 153.244 142.773 151.619 140.926 149.234C140.087 147.981 139.504 146.574 139.212 145.094C138.919 143.615 138.923 142.092 139.222 140.614C139.521 139.135 140.11 137.731 140.955 136.482C141.799 135.232 142.883 134.163 144.143 133.334Z" fill="#2C1F4A"/>
<path d="M259.649 31.8506C266.433 39.0362 266.674 44.9885 266.433 48.0987C266.433 49.0103 266.004 50.1364 265.092 50.2437C264.636 50.2751 264.183 50.1523 263.805 49.8951L239.031 37.213" fill="#2C1F4A"/>
<path d="M168.14 120.947C163.876 109.362 160.62 97.4314 158.407 85.287C156.208 73.0864 157.065 60.5311 160.901 48.7422C161.544 46.9726 166.96 35.1485 168.81 35.3362C170.151 35.3362 166.853 46.4632 167.55 47.6161C173.752 58.8728 176.389 71.7478 175.111 84.5363C174.161 96.9051 171.823 109.128 168.14 120.974" fill="#2C1F4A"/>
<path d="M168.73 187.655L166.424 73.8919C165.057 42.9776 181.921 16.4069 212.863 15.8975H215.731C229.619 16.4793 242.779 22.266 252.596 32.1071C262.412 41.9483 268.165 55.123 268.712 69.0121C269.731 95.8241 270.535 125.317 269.758 139.769C268.149 169.423 238.28 172.802 238.28 172.802C238.28 172.802 238.28 202.992 238.28 211.706L193.558 209.212L182.833 208.193L168.73 187.655Z" fill="#FFBF9D"/>
<path d="M238.227 172.936C224.524 172.331 211.283 167.809 200.073 159.905C200.073 159.905 208.439 182.588 238.146 181.167L238.227 172.936Z" fill="#23319E"/>
<path d="M258.657 97.1647C258.629 98.2718 258.166 99.3232 257.368 100.091C256.57 100.859 255.502 101.281 254.394 101.267C253.855 101.289 253.317 101.201 252.812 101.011C252.307 100.82 251.846 100.53 251.456 100.157C251.065 99.784 250.754 99.3365 250.54 98.8408C250.327 98.3452 250.215 97.8117 250.212 97.272C250.24 96.1696 250.699 95.1222 251.491 94.3551C252.284 93.588 253.345 93.1624 254.448 93.1698C254.989 93.1445 255.53 93.2289 256.039 93.4179C256.547 93.607 257.011 93.8968 257.404 94.27C257.797 94.6431 258.111 95.0919 258.327 95.5894C258.542 96.0868 258.654 96.6227 258.657 97.1647Z" fill="#2C1F4A"/>
<path d="M261.795 81.9891C261.232 82.5254 258.121 80.005 253.563 79.8174C249.005 79.6297 245.52 81.8015 245.091 81.2116C244.662 80.6217 245.439 79.9782 246.941 78.9862C248.971 77.6983 251.35 77.0707 253.751 77.1898C256.124 77.28 258.407 78.1254 260.266 79.6029C261.634 80.729 262.063 81.7478 261.795 81.9891Z" fill="#2C1F4A"/>
<path d="M219.19 95.7169C219.155 96.8217 218.69 97.8691 217.893 98.6355C217.097 99.4019 216.032 99.8267 214.927 99.8191C214.386 99.8444 213.845 99.76 213.337 99.571C212.829 99.3819 212.364 99.0921 211.971 98.7189C211.578 98.3457 211.264 97.897 211.049 97.3995C210.833 96.9021 210.721 96.3662 210.718 95.8241C210.752 94.7193 211.218 93.672 212.014 92.9055C212.811 92.1391 213.875 91.7143 214.981 91.7219C215.52 91.704 216.058 91.7936 216.563 91.9854C217.068 92.1771 217.529 92.4673 217.921 92.839C218.313 93.2107 218.626 93.6565 218.844 94.1506C219.062 94.6446 219.18 95.177 219.19 95.7169Z" fill="#2C1F4A"/>
<path d="M217.045 81.1848C216.509 81.6942 213.399 79.2007 208.841 79.013C204.283 78.8253 200.797 80.9703 200.368 80.4072C199.939 79.8442 200.69 79.1739 202.218 78.155C204.251 76.8765 206.63 76.2583 209.028 76.3854C211.39 76.4717 213.662 77.3075 215.517 78.7717C216.884 79.9246 217.367 80.9435 217.045 81.1848Z" fill="#2C1F4A"/>
<path d="M231.953 116.898C234.382 116.233 236.888 115.89 239.407 115.88C240.559 115.88 241.686 115.611 241.9 114.834C242.063 113.636 241.848 112.417 241.283 111.348C240.291 108.479 239.272 105.476 238.2 102.339C233.964 89.4965 230.934 78.9862 231.443 78.8253C231.953 78.6644 235.841 88.9066 240.077 101.723C241.096 104.887 242.088 107.916 242.999 110.785C243.689 112.212 243.841 113.84 243.428 115.37C243.244 115.776 242.97 116.134 242.626 116.418C242.282 116.701 241.878 116.902 241.444 117.006C240.785 117.152 240.109 117.216 239.433 117.193C236.937 117.397 234.425 117.298 231.953 116.898Z" fill="#2C1F4A"/>
<path d="M219.137 66.9744C218.466 68.1005 214.096 66.7063 208.707 66.3577C203.317 66.0092 198.786 66.6795 198.304 65.4461C198.089 64.8562 199.028 63.8642 200.985 62.9794C203.543 61.9635 206.299 61.5419 209.043 61.7462C211.788 61.9506 214.451 62.7757 216.831 64.1591C218.627 65.2852 219.431 66.4381 219.137 66.9744Z" fill="#2C1F4A"/>
<path d="M263.537 69.7092C262.545 70.7013 258.872 69.5215 254.394 69.3607C249.917 69.1998 246.136 69.8433 245.305 68.7172C244.93 68.1809 245.547 67.1621 247.236 66.2237C249.546 65.081 252.118 64.5721 254.689 64.749C257.267 64.8232 259.773 65.6123 261.929 67.028C263.457 68.1273 263.966 69.1998 263.537 69.7092Z" fill="#2C1F4A"/>
<path d="M167.872 95.9582C167.389 95.7169 147.736 89.0675 147.548 109.364C147.361 129.661 167.765 125.693 167.818 125.103C167.872 124.513 167.872 95.9582 167.872 95.9582Z" fill="#FFBF9D"/>
<path d="M161.678 117.381C161.678 117.381 161.33 117.622 160.74 117.89C159.88 118.239 158.919 118.239 158.059 117.89C155.914 117.086 154.144 113.654 154.091 110.008C154.06 108.262 154.417 106.531 155.136 104.94C155.328 104.307 155.673 103.731 156.141 103.264C156.609 102.796 157.185 102.451 157.818 102.259C158.223 102.153 158.654 102.194 159.032 102.376C159.41 102.558 159.711 102.868 159.882 103.251C160.15 103.814 160.016 104.216 160.123 104.243C160.231 104.27 160.579 103.921 160.418 103.063C160.311 102.567 160.036 102.122 159.641 101.803C159.084 101.375 158.381 101.182 157.683 101.267C156.845 101.415 156.06 101.78 155.406 102.326C154.752 102.871 154.252 103.579 153.957 104.377C153.073 106.12 152.631 108.054 152.67 110.008C152.67 114.11 154.815 118.051 157.737 118.829C158.28 118.995 158.852 119.038 159.414 118.955C159.975 118.871 160.511 118.663 160.981 118.346C161.652 117.864 161.759 117.408 161.678 117.381Z" fill="#23319E"/>
<path d="M255.547 35.497C258.818 33.6738 248.978 23.0294 240.908 19.4098C228.709 13.8597 210.047 10.4278 198.786 13.5916C185.246 17.4257 173.985 24.1556 167.148 36.4891C160.589 49.0459 157.48 63.1188 158.139 77.2702C157.968 81.5871 158.949 85.8717 160.981 89.6842C163.823 94.1618 167.872 96.3872 169.025 103.09C169.088 105.317 169.816 107.474 171.116 109.284C174.843 113.252 179.374 109.552 181.466 105.825C185.943 97.7814 186.453 88.3704 186.828 79.2543C187.473 72.7939 187.048 66.2713 185.568 59.9496C184.576 56.5445 182.887 53.3539 182.19 49.9219C181.68 48.2288 181.546 46.4451 181.796 44.6948C182.046 42.9446 182.675 41.2698 183.638 39.787C184.134 39.17 184.691 38.6042 185.3 38.0978C188.139 35.6354 191.581 33.9706 195.274 33.2734C198.967 32.5763 202.779 32.8717 206.32 34.1296C217.742 38.2051 237.262 44.2646 242.383 40.3768C249.729 34.7999 251.472 31.1535 251.472 31.1535L255.547 35.497Z" fill="#2C1F4A"/>
<path d="M217.608 119.714C218.305 119.714 218.332 124.325 222.354 127.757C226.376 131.189 231.309 130.438 231.363 131.162C231.417 131.886 230.264 132.074 228.145 132.154C225.405 132.173 222.747 131.223 220.638 129.473C218.6 127.827 217.282 125.452 216.965 122.851C216.777 120.84 217.367 119.687 217.608 119.714Z" fill="#2C1F4A"/>
<path d="M153.769 95.1002C153.393 94.7516 152.804 94.6712 152.455 94.3227C128.485 71.452 147.575 49.5197 147.897 42.7363C148.326 33.3521 137.172 45.203 135.698 32.8427C133.794 16.4873 151.275 9.51618 172.752 2.49143C181.761 -0.431088 203.827 -1.31588 223.185 2.78636C240.452 6.40599 251.954 18.7127 258.497 28.1505C260.405 29.0124 262.106 30.2742 263.484 31.8506C266.487 37.4811 265.119 39.8942 265.119 39.8942C265.119 39.8942 226.992 20.0265 194.979 46.0342C162.965 72.0419 168.703 94.5372 160.257 94.7785L153.769 95.1002Z" fill="#FF2533"/>
<path d="M179.83 16.4337C179.284 16.7124 178.72 16.9542 178.141 17.1576C177.465 17.3889 176.803 17.6574 176.157 17.962C175.406 18.2837 174.521 18.6323 173.476 19.1149C168.598 21.5032 164.084 24.5725 160.07 28.231C157.86 30.2615 155.799 32.4478 153.903 34.7731C152.39 36.6896 150.993 38.6952 149.72 40.779C149.13 41.6638 148.701 42.5218 148.299 43.2189C147.933 43.8344 147.602 44.47 147.307 45.1226C146.771 46.1682 146.476 46.7313 146.449 46.7313C146.602 46.1379 146.817 45.5626 147.093 45.0153C147.334 44.4791 147.602 43.8088 148.004 43.0849C148.406 42.3609 148.809 41.4761 149.345 40.5645C150.595 38.4641 151.984 36.4488 153.501 34.5318C155.379 32.1576 157.441 29.9344 159.667 27.8824C161.934 25.9168 164.345 24.1243 166.88 22.52C168.962 21.1826 171.14 19.9997 173.395 18.9808C174.334 18.525 175.218 18.2033 176.076 17.8815C176.934 17.5598 177.551 17.3453 178.114 17.1576C178.666 16.8721 179.24 16.63 179.83 16.4337Z" fill="#2C1F4A"/>
<path d="M259.515 28.6868H259.167L258.148 28.2846C257.236 27.8735 255.923 27.3372 254.207 26.6759C252.464 26.0592 250.346 25.2817 247.825 24.5845C244.985 23.7397 242.092 23.0858 239.165 22.6273C231.537 21.4251 223.762 21.5066 216.16 22.8686C206.839 24.477 197.933 27.9319 189.965 33.0303C185.847 35.6664 182.026 38.7409 178.57 42.2C175.382 45.4398 172.501 48.9672 169.963 52.7372C165.742 59.2002 162.278 66.1275 159.641 73.3825C157.335 79.576 155.887 84.724 154.895 88.2631C154.439 90.0327 154.064 91.4001 153.796 92.3654L153.501 93.4379C153.519 93.5533 153.519 93.6709 153.501 93.7864C153.501 93.7864 153.501 93.7864 153.501 93.4379L153.742 92.3386C153.956 91.4001 154.278 90.0059 154.734 88.2095C155.646 84.6435 157.067 79.4688 159.292 73.2484C161.894 65.937 165.34 58.9544 169.561 52.4422C172.097 48.5976 174.997 45.0061 178.221 41.7174C181.697 38.224 185.545 35.1221 189.697 32.4673C193.844 29.8106 198.256 27.5912 202.862 25.8447C207.158 24.2452 211.591 23.0426 216.107 22.2519C223.774 20.9502 231.605 20.9502 239.272 22.2519C242.212 22.7288 245.115 23.4097 247.959 24.2896C250.48 25.0135 252.598 25.8447 254.341 26.4882C256.084 27.1317 257.37 27.7752 258.228 28.2042L259.247 28.66L259.515 28.6868Z" fill="#2C1F4A"/>
<path d="M166.853 85.0725C164.996 85.3023 163.111 85.0646 161.369 84.3809C159.627 83.6973 158.084 82.5895 156.879 81.158C158.363 82.1851 159.933 83.0822 161.571 83.8392C163.29 84.4117 165.058 84.8245 166.853 85.0725Z" fill="#2C1F4A"/>
<path d="M177.551 67.0816C176.838 67.0556 176.137 66.8917 175.487 66.599C172.165 65.4489 169.331 63.2095 167.443 60.2446C166.994 59.6802 166.682 59.0194 166.531 58.3141C167.865 60.2991 169.451 62.1017 171.25 63.6765C173.204 65.0633 175.32 66.2068 177.551 67.0816Z" fill="#2C1F4A"/>
<path d="M195.917 44.9081C194.774 42.9639 193.511 41.0924 192.137 39.3044C190.633 37.6106 189.021 36.0164 187.311 34.5318C189.415 35.5016 191.254 36.9639 192.673 38.7949C194.219 40.5499 195.33 42.6441 195.917 44.9081Z" fill="#2C1F4A"/>
<path d="M214.418 35.7115C213.904 33.7145 213.286 31.7456 212.568 29.8129C211.227 26.6759 209.404 24.4505 209.565 24.4505C211.141 25.8673 212.355 27.6419 213.104 29.6252C214.029 31.5173 214.48 33.6062 214.418 35.7115Z" fill="#2C1F4A"/>
<path d="M242.114 33.9688C242.518 31.9415 242.447 29.8484 241.907 27.853C241.368 25.8577 240.374 24.0141 239.004 22.4664C239.557 22.7652 240.034 23.1872 240.398 23.6997C241.361 24.8705 242.065 26.2321 242.463 27.6947C242.852 29.1637 242.934 30.697 242.704 32.1992C242.63 32.823 242.43 33.4252 242.114 33.9688Z" fill="#2C1F4A"/>
<path d="M258.845 37.9906C259.133 36.4139 259.312 34.8193 259.381 33.218C259.264 31.623 259.04 30.0375 258.711 28.4723C259.516 29.925 259.949 31.5541 259.972 33.2146C259.996 34.8751 259.609 36.5157 258.845 37.9906Z" fill="#2C1F4A"/>
<path d="M79.848 538.116C79.848 540.797 61.5891 782.588 62.9833 805.298C64.3775 828.007 62.9833 1006.39 62.9833 1006.39H124.088C124.088 1006.39 137.145 789.773 138.969 778.861C140.792 767.948 151.678 732.53 151.678 732.53L188.356 573.454C188.356 573.454 185.112 702.554 188.356 722.556C191.601 742.557 184.361 783.446 184.361 795.27C184.361 807.094 174.012 1011.46 174.012 1011.46L230.317 1011.67C230.317 1011.67 233.615 996.253 235.841 986.413C237.235 980.193 249.568 870.075 250.399 864.847C252.544 851.28 255.413 812.885 258.979 796.155C261.66 784.143 281.448 653.166 282.386 650.753C283.834 646.999 293.513 560.772 293.513 560.772V527.418L85.3981 500.793L79.848 538.116Z" fill="#0E0F45"/>
<path d="M166.96 180.309C179.062 188.911 193.437 193.743 208.278 194.198C231.175 194.573 242.249 189.452 242.249 189.452L246.994 206.719L268.927 395.931L249.917 521.948L136.636 514.628L163.448 367.752L161.812 198.166L166.96 180.309Z" fill="#F5F5F5"/>
<path d="M238.817 206.719C238.817 206.933 242.517 270.88 242.329 274.821C239.916 327.721 218.708 622.305 218.708 622.305L291.1 619.624L293.325 598.791L288.231 417.327L297.91 301.794L303.005 216.398L252.759 195.404L243.401 178.352L238.039 175.054L238.817 206.719Z" fill="#23319E"/>
<path d="M303.165 216.398C303.165 216.398 325.983 225.407 335.34 280.023C340.434 310.133 345.877 379.549 345.877 379.549C345.877 379.549 353.17 440.976 345.877 451.647L338.557 454.328L292.548 440.922L290.644 426.899L296.409 409.498V398.478L281.206 344.238V257.367L303.165 216.398Z" fill="#23319E"/>
<path d="M303.165 254.096C303.224 254.603 303.224 255.116 303.165 255.624C303.165 256.777 303.165 258.305 303.165 259.967C303.165 263.775 303.165 269.271 302.844 276.055C302.334 289.461 300.672 308.229 298.125 328.821C295.578 349.412 293.138 367.913 291.69 381.399C290.966 388.129 290.403 393.572 290.054 397.352C289.893 399.122 289.733 400.543 289.625 401.696C289.598 402.206 289.508 402.71 289.357 403.197C289.293 402.69 289.293 402.177 289.357 401.669C289.357 400.516 289.357 398.988 289.545 397.299C289.733 393.518 290.135 388.049 290.751 381.212C291.931 367.806 294.237 349.037 296.784 328.579C299.331 308.122 301.101 289.434 301.878 275.921C302.281 269.164 302.549 263.668 302.629 259.833C302.629 258.064 302.763 256.616 302.817 255.49C302.873 255.012 302.99 254.543 303.165 254.096Z" fill="#2C1F4A"/>
<path d="M198.974 475.027L195.059 567.797L327.055 573.963L331.613 483.848L210.289 475.08L202.781 475.054L198.974 475.027Z" fill="#455A64"/>
<path d="M202.781 475.054L199.671 562.783H208.734L210.289 474.812L202.781 475.054Z" fill="white"/>
<path d="M215.517 477.949C215.892 477.949 215.731 498.38 215.168 523.53C214.605 548.68 213.828 569.11 213.452 569.11C213.077 569.11 213.211 548.68 213.774 523.53C214.337 498.38 215.115 477.923 215.517 477.949Z" fill="#2C1F4A"/>
<path d="M288.687 480.738C287.511 480.868 286.324 480.868 285.148 480.738L275.522 480.255C267.479 479.799 256.191 479.075 243.804 478.164L212.112 475.751L202.486 475.349C201.306 475.362 200.128 475.245 198.974 475C200.143 474.805 201.329 474.733 202.513 474.786H212.139C220.182 475.107 231.497 475.938 243.884 476.796C256.271 477.654 267.479 478.593 275.576 479.29L285.175 480.228C286.358 480.293 287.534 480.463 288.687 480.738Z" fill="#2C1F4A"/>
<path d="M235.546 552.192C235.546 552.192 251.928 536.239 260.025 530.742C268.122 525.246 281.85 523.476 281.85 523.476L305.579 547.178C305.579 547.178 292.816 580.398 290.242 582.382C287.928 583.587 285.409 584.351 282.815 584.635C279.765 585.137 276.635 584.775 273.78 583.589L271.098 582.516C271.098 582.516 252.893 581.39 252.035 577.824C252.035 577.824 243.107 579.165 239.835 575.921C238.118 574.032 236.918 571.733 236.35 569.244L254.823 561.925L259.516 551.2C259.516 551.2 246.753 558.466 241.712 559.726C236.672 560.986 231.953 555.356 235.546 552.192Z" fill="#FFBF9D"/>
<path d="M295.336 438.938L281.93 523.557L305.659 547.259C305.659 547.259 317.724 518.302 322.39 503.072C327.35 486.985 340.515 449.26 340.515 449.26C340.515 449.26 313.569 434.192 295.336 438.938Z" fill="#FFBF9D"/>
<path d="M269.061 569.968C269.221 569.834 269.677 571.363 268.256 572.918C267.428 573.707 266.441 574.31 265.36 574.687C264.234 575.143 263.001 575.599 261.66 576.028C258.517 577.301 255.158 577.957 251.767 577.958C254.832 576.632 257.997 575.547 261.231 574.714C263.443 574.159 265.571 573.312 267.559 572.194C268.873 571.148 268.846 569.942 269.061 569.968Z" fill="#23319E"/>
<path d="M253.215 195.404C254.106 197.626 254.832 199.912 255.386 202.241C256.593 206.558 258.229 212.671 260.105 219.803L260.588 221.68L259.033 220.5C256.064 218.176 253.414 215.471 251.15 212.457C249.887 210.753 248.749 208.961 247.745 207.094H249.005C246.324 215.138 244.286 222.511 242.972 227.766C242.374 230.6 241.632 233.401 240.747 236.158C240.696 235.385 240.759 234.608 240.935 233.853C241.176 232.351 241.525 230.206 242.088 227.552C243.559 220.487 245.439 213.513 247.718 206.665L248.201 205.164L248.952 206.558C249.949 208.32 251.051 210.021 252.249 211.652C254.454 214.559 257.012 217.18 259.864 219.454L258.818 220.125C257.049 212.993 255.574 206.719 254.555 202.429C253.909 200.13 253.46 197.78 253.215 195.404Z" fill="#2C1F4A"/>
<path d="M39.2545 393.009C39.2545 393.009 36.2247 446.097 37.8871 457.09C39.5494 468.083 76.8986 483.902 76.8986 483.902L106.124 477.44C106.124 477.44 111.915 423.655 112.237 422.019C112.559 420.384 112.237 381.989 112.237 381.989L39.2545 393.009Z" fill="#455A64"/>
<path d="M77.5689 202.375C77.5689 202.375 66.8441 207.55 58.9882 231.305C54.4838 244.711 0.216208 339.009 0.0017114 358.797C-0.320033 384.027 44.8315 407.326 44.8315 407.326L83.7626 353.22L66.9246 343.165L91.7525 321.447L77.5689 202.375Z" fill="#23319E"/>
<path d="M140.202 180.443C140.202 180.443 81.8588 198.38 77.5689 202.375C73.279 206.37 89.6343 297.987 89.6343 297.987V426.149L58.9882 565.035C58.9882 565.035 121.165 625.228 148.728 619.195C148.728 619.195 167.791 507.389 172.859 463.256C177.926 419.124 178.865 344.425 177.873 314.342C176.881 284.259 172.859 221.063 172.859 219.562C172.859 218.462 169.427 182.534 169.105 166.393H164.279L155.699 177.949L140.202 180.443Z" fill="#23319E"/>
<path d="M110.789 189.184C110.789 189.184 134.544 227.579 135.885 251.709C137.226 275.84 143.553 344.64 143.553 344.64H164.52C164.52 344.64 158.541 250.369 157.201 229.053C155.86 207.738 153.527 177.091 153.527 177.091C153.527 177.091 113.014 183.097 110.789 189.184Z" fill="#455A64"/>
<path d="M189.402 330.966C188.811 329.6 187.783 328.468 186.48 327.748C184.811 327.316 183.039 327.557 181.546 328.419C177.926 329.974 174.36 331.582 170.821 333.272L179.24 346.812C181.618 344.182 184.321 341.867 187.284 339.921C188.172 339.448 188.946 338.784 189.548 337.978C190.151 337.172 190.568 336.242 190.769 335.256C190.751 333.721 190.275 332.227 189.402 330.966Z" fill="#23319E"/>
<g opacity="0.3">
<path d="M165.754 367.511C165.289 366.327 164.386 365.367 163.233 364.829C161.196 364.105 159.212 365.956 157.871 367.671C142.695 387.164 135.081 413.011 115.24 427.73C103.845 436.176 89.5272 439.957 77.998 448.242L77.569 454.408C97.7048 455.374 116.42 444.649 132.963 433.12C143.929 425.478 154.788 417.032 161.893 405.745C168.998 394.457 171.787 379.469 165.754 367.511Z" fill="black"/>
</g>
<path d="M74.8877 432.878C74.8877 432.878 109.18 419.258 129.236 404.458C149.291 389.657 156.048 351.155 156.048 351.155L167.121 344.533C167.121 344.533 153.474 409.176 134.947 424.138C116.42 439.099 74.8877 464.356 74.8877 464.356V432.878Z" fill="#455A64"/>
<path d="M21.639 347.08C21.639 347.08 22.0412 346.49 22.9796 345.632C24.3272 344.446 25.7812 343.387 27.3232 342.468C32.443 339.375 38.2221 337.538 44.188 337.106C50.16 336.73 56.1353 337.787 61.6158 340.189C63.2714 340.929 64.8517 341.827 66.3348 342.87C67.3804 343.567 67.9166 344.05 67.863 344.104C67.8094 344.157 65.3963 342.79 61.2404 341.208C55.8484 339.116 50.0642 338.229 44.2931 338.609C38.5221 338.988 32.9039 340.626 27.8326 343.407C23.9181 345.552 21.7731 347.268 21.639 347.08Z" fill="#FF725E"/>
<path d="M67.2195 350.244L121.621 361.21C121.621 361.21 138.647 332.387 140.524 331.153C142.4 329.92 171.197 332.038 171.197 332.038C171.197 332.038 182.19 341.798 182.484 348.126C182.779 354.453 175.916 361.263 175.916 361.263C175.916 361.263 176.532 366.626 169.025 371.988C169.025 371.988 169.963 379.174 164.949 381.694C164.949 381.694 166.21 388.907 162.134 391.078C158.059 393.25 152.106 388.907 152.106 388.907L143.258 389.202C143.258 389.202 137.682 399.229 134.25 400.489C130.818 401.75 42.4452 403.305 42.4452 403.305C42.4452 403.305 29.9239 396.736 34.616 379.496C36.7879 372.068 40.9908 365.394 46.7511 360.226C52.5114 355.057 59.6004 351.6 67.2195 350.244Z" fill="#FFBF9D"/>
<path d="M121.782 384.161C121.08 380.379 120.845 376.525 121.085 372.685C120.845 368.846 121.08 364.992 121.782 361.21C122.711 368.832 122.711 376.539 121.782 384.161Z" fill="#23319E"/>
<path d="M163.743 382.391C163.421 382.659 160.874 379.549 156.664 377.19C152.455 374.83 148.621 374.133 148.621 373.731C151.722 373.428 154.832 374.215 157.415 375.956C160.205 377.306 162.441 379.579 163.743 382.391Z" fill="#23319E"/>
<path d="M153.474 359.708C159.829 361.708 165.319 365.8 169.052 371.318C168.73 371.586 165.7 368.476 161.41 365.312C157.12 362.148 153.313 360.084 153.474 359.708Z" fill="#23319E"/>
<path d="M157.71 346.812C161.657 347.165 165.455 348.485 168.771 350.655C172.086 352.825 174.816 355.777 176.72 359.252C173.981 356.589 171.07 354.108 168.006 351.826C164.693 349.921 161.253 348.246 157.71 346.812Z" fill="#23319E"/>
<path d="M77.569 227.82C77.9427 229.155 78.2117 230.518 78.3734 231.895C78.8024 234.764 79.3922 238.518 80.0893 243.022C81.4567 252.433 83.28 265.437 85.0228 279.862C86.7656 294.287 88.1329 307.344 88.8837 316.836C89.259 321.582 89.5004 325.416 89.6076 328.07C89.7188 329.453 89.7188 330.843 89.6076 332.226C89.2907 330.879 89.1022 329.506 89.0446 328.124C88.7229 325.228 88.3475 321.448 87.8649 316.916C86.8728 307.478 85.3981 294.421 83.6285 280.023C81.8589 265.625 80.2771 252.835 79.0705 243.156C78.5611 238.625 78.1321 234.845 77.8104 231.949C77.5971 230.584 77.5162 229.201 77.569 227.82Z" fill="#2C1F4A"/>
<path d="M31.2377 344.64C32.1834 342.844 33.5438 341.3 35.2059 340.135C39.053 337.024 43.8018 335.237 48.7459 335.041C53.6962 334.91 58.56 336.356 62.6346 339.17C64.3888 340.205 65.8476 341.673 66.8709 343.433C66.71 343.594 65.1817 341.878 62.0984 340.001C58.1171 337.53 53.4915 336.298 48.8085 336.46C44.1256 336.622 39.5964 338.172 35.7958 340.913C32.8464 342.87 31.4254 344.801 31.2377 344.64Z" fill="#2C1F4A"/>
<path d="M172.537 225.728C171.589 224.027 170.825 222.229 170.258 220.366C168.53 215.574 167.15 210.664 166.129 205.673L167.228 205.861L157.925 222.565L156.825 224.549L156.638 222.297C156.638 221.492 156.477 220.661 156.423 219.803C155.571 209.772 155.249 199.704 155.458 189.639C155.458 185.779 155.699 182.668 155.86 180.523C155.863 179.396 155.989 178.272 156.236 177.172C156.407 178.28 156.461 179.404 156.396 180.523C156.396 182.963 156.396 186.02 156.396 189.666C156.396 197.361 156.772 207.979 157.737 219.669C157.737 220.527 157.898 221.385 157.951 222.162L156.664 221.894C160.096 215.835 163.341 210.177 166.129 205.271L166.934 203.85L167.255 205.459C168.186 210.42 169.394 215.325 170.875 220.152C171.538 221.976 172.093 223.839 172.537 225.728Z" fill="#2C1F4A"/>
<path d="M129.236 404.538C128.493 405.308 127.666 405.992 126.769 406.576C125.107 407.809 122.667 409.525 119.61 411.536C111.591 416.843 103.111 421.419 94.2728 425.21C89.3871 427.381 84.1616 428.687 78.829 429.071C74.4494 429.283 70.0701 428.646 65.9325 427.194C63.132 426.261 60.4362 425.039 57.8888 423.548C56.9344 423.055 56.0355 422.462 55.2076 421.778C55.3417 421.483 59.2027 424.03 66.147 426.256C70.1953 427.514 74.4352 428.04 78.6682 427.811C83.8523 427.346 88.9248 426.033 93.6829 423.923C102.43 420.138 110.889 415.72 118.994 410.705L126.367 406.12C127.265 405.494 128.227 404.964 129.236 404.538Z" fill="#2C1F4A"/>
<path d="M135.778 423.441C135.036 424.235 134.209 424.946 133.311 425.559C131.702 426.846 129.289 428.669 126.286 430.921C120.28 435.318 111.835 441.19 102.156 447.25C92.4764 453.309 83.6017 458.403 77.0595 461.916C73.7885 463.685 71.1072 465.053 69.2304 465.964C68.2894 466.503 67.2912 466.935 66.2543 467.251C67.0809 466.566 67.98 465.972 68.9355 465.482L76.5501 461.058C82.9582 457.331 91.8061 452.103 101.405 446.07C111.004 440.037 119.503 434.299 125.536 430.117C128.431 428.159 130.898 426.497 132.829 425.183C133.73 424.475 134.722 423.889 135.778 423.441Z" fill="#2C1F4A"/>
</svg>
