<svg width="71" height="71" viewBox="0 0 71 71" fill="none" xmlns="http://www.w3.org/2000/svg">
<mask id="mask0_111_29" style="mask-type:luminance" maskUnits="userSpaceOnUse" x="0" y="0" width="71" height="71">
<path d="M70.899 0H0V70.899H70.899V0Z" fill="white"/>
</mask>
<g mask="url(#mask0_111_29)">
<path d="M35.4553 70.8989H44.0303V56.7439C43.6303 56.7129 43.2113 56.6709 42.8073 56.6199C42.1333 56.5569 41.4593 56.4639 40.7953 56.3499C40.4223 56.298 40.0593 56.2359 39.6953 56.1629C39.4563 56.1109 39.2183 56.0699 38.9793 56.0179C38.5333 55.9349 38.0873 55.8309 37.6423 55.7179C36.2055 55.3769 34.7892 54.9545 33.4003 54.4529C32.8823 54.2669 32.364 54.0699 31.8453 53.8619C31.5133 53.7269 31.1813 53.5819 30.8453 53.4369C29.4863 52.8463 28.1606 52.1817 26.8743 51.4459V51.6119C25.6626 50.9648 24.5283 50.1822 23.4933 49.2789C23.4833 49.2789 23.4723 49.2679 23.4623 49.2579C22.5393 48.6049 21.6473 47.9099 20.7763 47.1839C19.9263 46.4679 19.1063 45.7219 18.3183 44.9339C17.9183 44.5399 17.5183 44.1339 17.1473 43.7199C17.1252 43.7086 17.107 43.6908 17.0953 43.6689C16.7213 43.2689 16.3693 42.8799 16.0273 42.4689C15.2803 41.6179 14.5853 40.7469 13.9273 39.8349C13.5743 39.3579 13.2423 38.8699 12.9113 38.3719C12.6513 37.9889 12.4113 37.6149 12.1743 37.2209C12.1643 37.2109 12.1643 37.2009 12.1543 37.1899C11.915 36.8166 11.6866 36.4329 11.4693 36.0389C10.8993 35.0329 10.3603 33.9959 9.8693 32.9389C9.6623 32.4929 9.45429 32.0469 9.26929 31.5899C8.88529 30.6779 8.53229 29.7549 8.22129 28.8219C8.10729 28.4899 8.0043 28.1579 7.9003 27.8219C7.6923 27.1589 7.50029 26.4849 7.33029 25.8099C7.26729 25.5719 7.20529 25.3229 7.15329 25.0849C7.03929 24.6389 6.9463 24.2029 6.8533 23.7569C6.7593 23.2699 6.66629 22.7819 6.59329 22.2949C6.50029 21.7559 6.41729 21.2059 6.35529 20.6669C6.29329 20.2109 6.2553 19.7669 6.2103 19.3189C6.1893 19.1319 6.17831 18.9559 6.16831 18.7689C6.15259 18.6696 6.14224 18.5694 6.1373 18.4689C6.1163 18.2199 6.10631 17.9689 6.09531 17.7219C6.05398 17.0479 6.0333 16.3636 6.0333 15.6689C3.33538 19.6709 1.48464 24.1824 0.594851 28.9261C-0.294933 33.6698 -0.204961 38.5453 0.859286 43.2529C0.869286 43.2729 0.869306 43.3039 0.879306 43.3249C2.34623 49.7107 5.5497 55.5666 10.1359 60.246C14.722 64.9253 20.5124 68.2459 26.8673 69.8409C29.6749 70.5488 32.5598 70.9042 35.4553 70.8989Z" fill="url(#paint0_linear_111_29)"/>
<path d="M44.0304 56.7439V39.3439C44.0427 38.21 43.8299 37.0848 43.4044 36.0337C42.979 34.9825 42.3492 34.0262 41.5517 33.22C40.7542 32.4138 39.8047 31.7738 38.7582 31.337C37.7117 30.9002 36.5889 30.6753 35.4549 30.6753C34.3209 30.6753 33.1981 30.9002 32.1516 31.337C31.1051 31.7738 30.1556 32.4138 29.3581 33.22C28.5606 34.0262 27.9309 34.9825 27.5054 36.0337C27.0799 37.0848 26.8672 38.21 26.8794 39.3439V51.4439C32.1363 54.4522 37.9928 56.262 44.0304 56.7439Z" fill="url(#paint1_linear_111_29)"/>
<path d="M23.4671 49.257C21.4847 47.5428 19.8946 45.4219 18.8049 43.0384C17.7152 40.6549 17.1515 38.0647 17.152 35.444C17.1527 34.2291 17.2706 33.0172 17.5041 31.825C17.7471 30.642 18.1047 29.4856 18.5721 28.372C19.9571 25.0885 22.2663 22.2783 25.219 20.283C25.219 20.273 25.2191 20.273 25.2301 20.273C25.7071 19.827 26.204 19.391 26.713 18.973C26.7209 18.9721 26.7281 18.9681 26.7331 18.962C31.4737 15.0306 37.1027 12.3165 43.131 11.0558C49.1593 9.79506 55.4042 10.0258 61.323 11.728C61.523 11.769 61.7231 11.828 61.9231 11.894C55.9058 5.11809 47.5192 0.907804 38.4906 0.130353C29.462 -0.647097 20.4791 2.0675 13.3921 7.71499C10.5538 9.98015 8.07472 12.6619 6.03906 15.669C6.05491 24.3539 8.81732 32.8112 13.9311 39.831C16.5838 43.464 19.8036 46.6466 23.4671 49.257Z" fill="url(#paint2_linear_111_29)"/>
<path d="M71.1801 70.793V54.751L71.176 54.7502L71.1726 54.7477L71.1705 54.7441L71.1701 54.74H71.1591C70.8901 54.564 70.62 54.398 70.359 54.211C69.726 53.811 69.114 53.382 68.513 52.946C67.0058 51.8482 65.5718 50.6533 64.2201 49.369C63.9611 49.13 63.701 48.881 63.442 48.632C63.401 48.591 63.3591 48.539 63.3181 48.497C62.9441 48.135 62.592 47.772 62.25 47.397C61.876 47.003 61.5131 46.597 61.1501 46.197C60.8601 45.855 60.5591 45.503 60.2691 45.15C60.0821 44.922 59.8961 44.683 59.7091 44.445C59.5531 44.258 59.409 44.061 59.263 43.874C59.045 43.584 58.8271 43.294 58.6201 43.003C58.5471 42.903 58.4751 42.803 58.4131 42.713C58.1431 42.34 57.873 41.956 57.625 41.562C57.5882 41.5162 57.5548 41.4677 57.5251 41.417C57.2451 40.992 56.975 40.566 56.716 40.131C56.467 39.747 56.2391 39.364 56.0321 38.969C55.9381 38.824 55.8551 38.669 55.7721 38.513C55.5551 38.14 55.3471 37.767 55.1721 37.393C55.1511 37.352 55.1301 37.321 55.1101 37.279C54.8711 36.844 54.6531 36.398 54.4461 35.952C54.4461 35.931 54.4361 35.921 54.4251 35.9C54.2701 35.6 54.135 35.3 54 35C54.031 35.4 54.041 35.809 54.041 36.213V53.643C54.0419 54.8099 54.1602 55.9738 54.3941 57.117C55.1902 60.9805 57.295 64.4509 60.3531 66.9425C63.4113 69.434 67.2355 70.7941 71.1801 70.793Z" fill="url(#paint3_linear_111_29)"/>
<path d="M70.8989 53.9859V35.4439C70.8972 27.1894 68.0104 19.1951 62.7379 12.8439C62.4789 12.5229 62.2088 12.2009 61.9288 11.8899C61.765 11.8351 61.598 11.79 61.4288 11.7549C61.4054 11.7356 61.3762 11.7247 61.3458 11.7239H61.3259C60.9419 11.6099 60.5479 11.5059 60.1539 11.4019C60.0919 11.3919 60.0189 11.3709 59.9459 11.3509C59.5729 11.2569 59.1888 11.1739 58.8058 11.0909C58.2558 10.9669 57.7058 10.8629 57.1458 10.7699C56.8458 10.7179 56.5458 10.6769 56.2458 10.6249C55.8828 10.5729 55.5098 10.5319 55.1368 10.4899C54.7938 10.4479 54.4519 10.4169 54.1099 10.3899C53.9339 10.3799 53.7569 10.3589 53.5709 10.3489C52.6789 10.2869 51.7768 10.2549 50.8708 10.2549C50.6418 10.2549 50.4138 10.2549 50.1968 10.2659C49.9968 10.2659 49.8128 10.2759 49.6158 10.2869C49.5084 10.2796 49.4006 10.2829 49.2938 10.2969C49.1488 10.2969 49.0038 10.3069 48.8588 10.3179C48.4748 10.3279 48.0918 10.3589 47.7078 10.3899C47.5518 10.4009 47.3968 10.4109 47.2408 10.4319C46.7538 10.4729 46.2768 10.5249 45.7888 10.5979C45.4888 10.6389 45.1778 10.6809 44.8768 10.7319C44.82 10.7323 44.7637 10.7432 44.7108 10.7639C44.4828 10.7949 44.2439 10.8359 44.0109 10.8779C43.1299 11.0329 42.2478 11.2299 41.3878 11.4579C41.1278 11.5209 40.8688 11.5929 40.6198 11.6659C39.2225 12.0596 37.8481 12.5303 36.5029 13.0759C36.1199 13.2319 35.7459 13.3979 35.3729 13.5759C34.5429 13.9389 33.7339 14.3429 32.9359 14.7759C32.6039 14.9419 32.2828 15.1279 31.9608 15.3149C31.0378 15.8439 30.1359 16.4149 29.2609 17.0259C28.8249 17.3369 28.3898 17.6479 27.9608 17.9699C27.5558 18.2809 27.1519 18.6019 26.7609 18.9239C26.7498 18.9403 26.7354 18.9542 26.7188 18.9649C26.6048 19.0479 26.5018 19.1419 26.3878 19.2349C25.9878 19.5669 25.5988 19.9189 25.2158 20.2719C28.2331 18.2265 31.7956 17.1353 35.4409 17.1399H35.4509C37.8513 17.1399 40.2282 17.6134 42.4454 18.5333C44.6626 19.4532 46.6765 20.8015 48.3718 22.5009C51.5101 25.6362 53.404 29.8038 53.7018 34.2299C53.8368 34.5299 53.9718 34.8299 54.1268 35.1299C54.1378 35.1509 54.1478 35.1609 54.1478 35.1819C54.3658 35.6279 54.5828 36.0739 54.8118 36.5089C54.8318 36.5509 54.8528 36.5819 54.8738 36.6229C55.0598 36.9969 55.2678 37.3699 55.4738 37.7429C55.5568 37.8989 55.6398 38.0539 55.7338 38.1989C55.9508 38.5989 56.1788 38.9769 56.4178 39.3609C56.6768 39.7959 56.9469 40.2219 57.2269 40.6469C57.2566 40.6976 57.29 40.7461 57.3268 40.7919C57.5748 41.1759 57.8349 41.5589 58.1149 41.9429C58.1769 42.0359 58.2488 42.1299 58.3218 42.2329C58.5288 42.5239 58.7468 42.8139 58.9648 43.1039C59.1098 43.2909 59.2548 43.4879 59.4108 43.6749C59.5868 43.9129 59.7738 44.1519 59.9708 44.3799C60.2608 44.7329 60.5619 45.0799 60.8519 45.4269C61.2149 45.8269 61.5778 46.2359 61.9518 46.6269C62.2938 47.0009 62.6458 47.3639 63.0198 47.7269C63.0608 47.7689 63.1029 47.8209 63.1439 47.8619C63.4029 48.1109 63.6628 48.3619 63.9218 48.5989C65.2736 49.8832 66.7077 51.0781 68.2148 52.1759C68.8148 52.6219 69.4279 53.0469 70.0609 53.4519C70.3199 53.6279 70.5898 53.8039 70.8608 53.9699H70.8718C70.8697 53.9735 70.8691 53.9777 70.8701 53.9818C70.8711 53.9858 70.8737 53.9893 70.8773 53.9914C70.8809 53.9935 70.8852 53.9941 70.8892 53.9931C70.8933 53.9921 70.8967 53.9895 70.8989 53.9859Z" fill="url(#paint4_linear_111_29)"/>
<g style="mix-blend-mode:multiply" opacity="0.1">
<path d="M17.1519 35.4441C17.1526 34.2292 17.2705 33.0173 17.5039 31.8251C14.9839 25.5621 13.3659 17.6701 13.3979 7.71509C10.5596 9.98025 8.08057 12.662 6.04492 15.6691C6.06077 24.354 8.82318 32.8113 13.9369 39.8311C16.5878 43.4636 19.8056 46.6462 23.4669 49.2571C21.4846 47.5429 19.8945 45.422 18.8048 43.0385C17.7151 40.655 17.1514 38.0648 17.1519 35.4441Z" fill="url(#paint5_linear_111_29)"/>
</g>
<g style="mix-blend-mode:multiply" opacity="0.16">
<path d="M44.0299 56.744V55.168C37.5858 53.6694 31.6625 50.4675 26.8789 45.897V51.445C32.1359 54.4529 37.9924 56.2623 44.0299 56.744Z" fill="url(#paint6_linear_111_29)"/>
</g>
<g style="mix-blend-mode:multiply" opacity="0.1">
<path d="M68.3068 22.16C66.9461 18.7853 65.0672 15.6435 62.7379 12.848C62.4789 12.527 62.2088 12.205 61.9288 11.894C61.765 11.8392 61.598 11.7941 61.4288 11.759C61.4054 11.7397 61.3762 11.7288 61.3458 11.728H61.3259C60.9419 11.614 60.5479 11.51 60.1539 11.406C60.0919 11.396 60.0189 11.375 59.9459 11.355C59.5729 11.261 59.1888 11.178 58.8058 11.095C58.2558 10.971 57.7058 10.867 57.1458 10.774C56.8458 10.722 56.5458 10.681 56.2458 10.629C55.8828 10.577 55.5098 10.536 55.1368 10.494C54.7938 10.452 54.4519 10.421 54.1099 10.394C53.9339 10.384 53.7569 10.363 53.5709 10.353C52.6789 10.291 51.7768 10.259 50.8708 10.259C50.6418 10.259 50.4138 10.259 50.1968 10.27C49.9968 10.27 49.8128 10.28 49.6158 10.291C49.5084 10.2837 49.4006 10.2871 49.2938 10.301C49.1488 10.301 49.0038 10.311 48.8588 10.322C48.4748 10.332 48.0918 10.363 47.7078 10.394C47.5518 10.405 47.3968 10.415 47.2408 10.436C46.7538 10.477 46.2768 10.529 45.7888 10.602C45.4888 10.643 45.1778 10.685 44.8768 10.736C44.82 10.7365 44.7637 10.7473 44.7108 10.768C44.4828 10.799 44.2439 10.84 44.0109 10.882C43.1299 11.037 42.2478 11.234 41.3878 11.462C41.1278 11.525 40.8688 11.597 40.6198 11.67C39.2225 12.0637 37.8481 12.5345 36.5029 13.08C36.1199 13.236 35.7459 13.402 35.3729 13.58C34.5429 13.943 33.7339 14.347 32.9359 14.78C32.6039 14.946 32.2828 15.132 31.9608 15.319C31.0378 15.848 30.1359 16.419 29.2609 17.03C28.8249 17.341 28.3898 17.652 27.9608 17.974C27.5558 18.285 27.1519 18.606 26.7609 18.928C26.7498 18.9444 26.7354 18.9583 26.7188 18.969C26.6048 19.052 26.5018 19.146 26.3878 19.239C25.9878 19.571 25.5988 19.923 25.2158 20.276C28.2331 18.2307 31.7956 17.1394 35.4409 17.144H35.4509C43.1659 15.344 54.3759 15.132 67.7219 21.883C67.9229 21.963 68.1228 22.057 68.3068 22.16Z" fill="url(#paint7_linear_111_29)"/>
</g>
<g style="mix-blend-mode:multiply" opacity="0.1">
<path d="M70.8998 64.5321V53.9861L70.8957 53.9853L70.8923 53.9828L70.8902 53.9792L70.8898 53.9751H70.8788C70.6098 53.7991 70.3397 53.6331 70.0787 53.4461C69.4457 53.0461 68.8337 52.6171 68.2327 52.1811C66.7255 51.0833 65.2915 49.8884 63.9398 48.6041C63.6808 48.3651 63.4207 48.1161 63.1617 47.8671C63.1207 47.8261 63.0788 47.7741 63.0378 47.7321C62.6638 47.3701 62.3117 47.0071 61.9697 46.6321C61.5957 46.2381 61.2328 45.8321 60.8698 45.4321C60.5798 45.0901 60.2788 44.7381 59.9888 44.3851C59.8018 44.1571 59.6158 43.9181 59.4288 43.6801C59.2728 43.4931 59.1287 43.2961 58.9827 43.1091C58.7647 42.8191 58.5468 42.5291 58.3398 42.2381C58.2668 42.1381 58.1948 42.0381 58.1328 41.9481C57.8628 41.5751 57.5927 41.1911 57.3447 40.7971C57.3079 40.7513 57.2745 40.7028 57.2448 40.6521C56.9648 40.2271 56.6947 39.8011 56.4357 39.3661C56.1867 38.9821 55.9588 38.5991 55.7518 38.2041C55.6578 38.0591 55.5748 37.9041 55.4918 37.7481C55.2748 37.3751 55.0668 37.0021 54.8918 36.6281C54.8708 36.5871 54.8498 36.5561 54.8298 36.5141C54.5908 36.0791 54.3728 35.6331 54.1658 35.1871C54.1658 35.1661 54.1558 35.1561 54.1448 35.1351C53.9898 34.8351 53.8547 34.5351 53.7197 34.2351C53.7507 34.6351 53.7607 35.0441 53.7607 35.4481V40.0381C57.3191 49.1262 62.9222 57.273 70.1357 63.8471C70.3817 64.0781 70.6408 64.3041 70.8998 64.5321Z" fill="url(#paint8_linear_111_29)"/>
</g>
<g style="mix-blend-mode:screen" opacity="0.6">
<path d="M20.7816 47.1779C16.5434 43.6161 13.0642 39.2389 10.5506 34.3063C8.03707 29.3737 6.54043 23.9862 6.14963 18.4639C6.13963 18.6189 6.11863 19.1059 6.09763 19.8429C6.0826 20.3962 6.09662 20.95 6.13962 21.5019C6.16109 22.2201 6.22319 22.9366 6.32562 23.6479C6.36762 24.0479 6.42563 24.4479 6.48163 24.8719C6.56463 25.2869 6.64762 25.7229 6.73062 26.1719C6.89662 27.0639 7.15562 27.9869 7.42462 28.9409C7.74662 29.8739 8.00563 30.8699 8.43063 31.8239C8.81463 32.7989 9.27062 33.7529 9.73062 34.7069C10.2486 35.6399 10.7366 36.5839 11.3066 37.4549C11.8456 38.3469 12.4676 39.1659 13.0486 39.9639C13.6606 40.7529 14.2726 41.4889 14.8836 42.1519C15.45 42.7873 16.0488 43.3931 16.6776 43.9669C17.2486 44.5169 17.7976 44.9839 18.3066 45.3879C18.7282 45.742 19.1678 46.0741 19.6236 46.3829C20.2736 46.8509 20.6886 47.1209 20.7816 47.1779Z" fill="url(#paint9_linear_111_29)"/>
</g>
<g style="mix-blend-mode:screen" opacity="0.6">
<path d="M70.8787 53.978H70.8897C70.8267 53.916 70.5467 53.646 70.0807 53.232C69.5617 52.765 68.8157 52.091 67.9237 51.292C67.4877 50.878 67.0237 50.442 66.5237 49.975C66.0237 49.508 65.5387 48.99 64.9997 48.493C63.9627 47.435 62.8737 46.305 61.8367 45.133C60.7787 43.961 59.7937 42.733 58.8707 41.597C58.4347 40.997 57.9707 40.456 57.5707 39.897C57.1707 39.338 56.7827 38.829 56.4297 38.352C55.7247 37.387 55.1537 36.578 54.7497 35.987C54.4497 35.552 54.2317 35.261 54.1377 35.137C57.8062 42.8858 63.6152 49.4234 70.8787 53.978Z" fill="url(#paint10_linear_111_29)"/>
</g>
<g style="mix-blend-mode:screen" opacity="0.6">
<path d="M50.8755 10.2549C54.4103 10.2498 57.9279 10.7457 61.3235 11.7279H61.3645C61.3645 11.7279 60.8355 11.4899 59.8715 11.1469C58.544 10.6731 57.1811 10.3053 55.7955 10.0469C53.8246 9.66213 51.8207 9.47122 49.8125 9.47691C48.6802 9.46876 47.5483 9.5205 46.4215 9.63191C45.2705 9.75691 44.0985 9.92291 42.9475 10.1609C41.7965 10.3989 40.6555 10.7109 39.5475 11.0609C38.9953 11.223 38.4519 11.4136 37.9195 11.6319C37.3905 11.8319 36.8715 12.0459 36.3635 12.2749C35.3927 12.692 34.4474 13.1662 33.5325 13.6949C32.7032 14.1496 31.8999 14.6504 31.1265 15.1949C30.4664 15.6424 29.8295 16.1234 29.2185 16.6359C28.6585 17.0719 28.2125 17.5069 27.8295 17.8359C27.1755 18.4789 26.7925 18.8839 26.7295 18.9559C33.5118 13.3191 42.0566 10.24 50.8755 10.2549Z" fill="url(#paint11_linear_111_29)"/>
</g>
<g style="mix-blend-mode:multiply" opacity="0.3">
<path d="M70.8993 70.028V35.444C70.8976 27.1895 68.0108 19.1952 62.7383 12.844C63.4533 13.819 64.1273 14.804 64.7603 15.831C65.4046 16.8737 65.9931 17.9498 66.5233 19.055C66.9793 19.978 67.3733 20.922 67.7363 21.876C67.8093 22.053 67.8713 22.239 67.9443 22.426C68.3711 23.5675 68.7382 24.7304 69.0443 25.91C69.3553 27.0851 69.6043 28.2757 69.7903 29.477C69.9563 30.677 70.0902 31.883 70.1432 33.086C70.1962 34.289 70.1853 35.492 70.1743 36.736L70.1332 40.436L70.0812 47.83V55.224C70.0812 58.0973 70.0986 60.9697 70.1332 63.841C70.1432 65.667 70.1743 67.492 70.1953 69.306L69.4952 69.296L68.0953 69.141L66.7233 68.866L65.3643 68.483L64.0373 67.975L62.7623 67.353L61.5383 66.627L60.3773 65.797L59.2883 64.884L58.2613 63.884L57.3173 62.805L56.4673 61.644L55.7203 60.399L55.0773 59.099L54.5383 57.751L54.1133 56.351C54.9092 60.2146 57.0139 63.6853 60.072 66.1771C63.1302 68.6688 66.9545 70.029 70.8993 70.028Z" fill="url(#paint12_linear_111_29)"/>
</g>
<g style="mix-blend-mode:multiply" opacity="0.3">
<path d="M35.4557 70.8991H44.0307V58.7351C43.8967 60.7571 43.8237 62.7901 43.7307 64.8121C43.6477 66.6681 43.5857 68.5121 43.5307 70.3701L36.9767 70.2041C35.7947 70.1831 34.6437 70.1941 33.5027 70.1041C32.3557 70.0232 31.2136 69.8847 30.0807 69.6891C28.9509 69.5118 27.8324 69.2694 26.7307 68.9631C25.612 68.6677 24.5103 68.3111 23.4306 67.8951C22.3626 67.5321 21.3147 67.0241 20.2677 66.5671C19.2617 66.0181 18.2147 65.5411 17.2607 64.8981C16.2607 64.3281 15.3417 63.6431 14.3977 62.9791C13.9317 62.6471 13.4977 62.2641 13.0497 61.9111C12.593 61.5597 12.157 61.1824 11.7437 60.7811C11.3287 60.3871 10.8927 60.0031 10.4887 59.5991L9.28867 58.3441C8.88867 57.9441 8.54166 57.4731 8.15866 57.0371C7.79566 56.5921 7.41165 56.1661 7.07965 55.6891L6.05365 54.2891L5.11966 52.8271C4.78866 52.3401 4.51968 51.8271 4.23868 51.3271C3.95768 50.8271 3.64766 50.3211 3.40866 49.7921C2.90866 48.7441 2.40267 47.6921 2.00867 46.5871C1.56267 45.5301 1.26267 44.4201 0.888672 43.3311C2.3556 49.7168 5.55907 55.5727 10.1452 60.2521C14.7314 64.9314 20.5218 68.252 26.8767 69.8471C29.6816 70.5522 32.5634 70.9056 35.4557 70.8991Z" fill="url(#paint13_linear_111_29)"/>
</g>
</g>
<defs>
<linearGradient id="paint0_linear_111_29" x1="-1277.8" y1="1452.53" x2="-1277.8" y2="1413.82" gradientUnits="userSpaceOnUse">
<stop stop-color="#E214E6"/>
<stop offset="0.238" stop-color="#FC00B5"/>
<stop offset="0.44" stop-color="#7C0E71"/>
<stop offset="0.629" stop-color="#D500E7"/>
<stop offset="0.81" stop-color="#D000D4"/>
<stop offset="0.9829" stop-color="#BA00A7"/>
<stop offset="0.983" stop-color="#ED30DA"/>
</linearGradient>
<linearGradient id="paint1_linear_111_29" x1="-470.751" y1="708.874" x2="-470.751" y2="690.603" gradientUnits="userSpaceOnUse">
<stop stop-color="#E214E6"/>
<stop offset="0.238" stop-color="#FC00B5"/>
<stop offset="0.44" stop-color="#7C0E71"/>
<stop offset="0.629" stop-color="#D500E7"/>
<stop offset="0.81" stop-color="#D000D4"/>
<stop offset="0.9829" stop-color="#BA00A7"/>
<stop offset="0.983" stop-color="#ED30DA"/>
</linearGradient>
<linearGradient id="paint2_linear_111_29" x1="-1615.32" y1="1281.47" x2="-1615.32" y2="1246.95" gradientUnits="userSpaceOnUse">
<stop stop-color="#E214E6"/>
<stop offset="0.238" stop-color="#FC00B5"/>
<stop offset="0.44" stop-color="#7C0E71"/>
<stop offset="0.629" stop-color="#D500E7"/>
<stop offset="0.81" stop-color="#D000D4"/>
<stop offset="0.9829" stop-color="#BA00A7"/>
<stop offset="0.983" stop-color="#ED30DA"/>
</linearGradient>
<linearGradient id="paint3_linear_111_29" x1="-444.445" y1="966.188" x2="-444.445" y2="941.101" gradientUnits="userSpaceOnUse">
<stop stop-color="#E214E6"/>
<stop offset="0.238" stop-color="#FC00B5"/>
<stop offset="0.44" stop-color="#7C0E71"/>
<stop offset="0.629" stop-color="#D500E7"/>
<stop offset="0.81" stop-color="#D000D4"/>
<stop offset="0.9829" stop-color="#BA00A7"/>
<stop offset="0.983" stop-color="#ED30DA"/>
</linearGradient>
<linearGradient id="paint4_linear_111_29" x1="-1300.19" y1="1148.16" x2="-1300.19" y2="1117.5" gradientUnits="userSpaceOnUse">
<stop stop-color="#E214E6"/>
<stop offset="0.238" stop-color="#FC00B5"/>
<stop offset="0.44" stop-color="#7C0E71"/>
<stop offset="0.629" stop-color="#D500E7"/>
<stop offset="0.81" stop-color="#D000D4"/>
<stop offset="0.9829" stop-color="#BA00A7"/>
<stop offset="0.983" stop-color="#ED30DA"/>
</linearGradient>
<linearGradient id="paint5_linear_111_29" x1="-499.418" y1="1088.47" x2="-499.418" y2="1059.35" gradientUnits="userSpaceOnUse">
<stop stop-color="#E214E6"/>
<stop offset="0.238" stop-color="#FC00B5"/>
<stop offset="0.44" stop-color="#7C0E71"/>
<stop offset="0.629" stop-color="#D500E7"/>
<stop offset="0.81" stop-color="#D000D4"/>
<stop offset="0.9829" stop-color="#BA00A7"/>
<stop offset="0.983" stop-color="#ED30DA"/>
</linearGradient>
<linearGradient id="paint6_linear_111_29" x1="-470.722" y1="328.092" x2="-470.722" y2="320.489" gradientUnits="userSpaceOnUse">
<stop stop-color="#E214E6"/>
<stop offset="0.238" stop-color="#FC00B5"/>
<stop offset="0.44" stop-color="#7C0E71"/>
<stop offset="0.629" stop-color="#D500E7"/>
<stop offset="0.81" stop-color="#D000D4"/>
<stop offset="0.9829" stop-color="#BA00A7"/>
<stop offset="0.983" stop-color="#ED30DA"/>
</linearGradient>
<linearGradient id="paint7_linear_111_29" x1="-1224.98" y1="319.875" x2="-1224.98" y2="311.533" gradientUnits="userSpaceOnUse">
<stop stop-color="#E214E6"/>
<stop offset="0.238" stop-color="#FC00B5"/>
<stop offset="0.44" stop-color="#7C0E71"/>
<stop offset="0.629" stop-color="#D500E7"/>
<stop offset="0.81" stop-color="#D000D4"/>
<stop offset="0.9829" stop-color="#BA00A7"/>
<stop offset="0.983" stop-color="#ED30DA"/>
</linearGradient>
<linearGradient id="paint8_linear_111_29" x1="-444.726" y1="822.44" x2="-444.726" y2="801.205" gradientUnits="userSpaceOnUse">
<stop stop-color="#E214E6"/>
<stop offset="0.238" stop-color="#FC00B5"/>
<stop offset="0.44" stop-color="#7C0E71"/>
<stop offset="0.629" stop-color="#D500E7"/>
<stop offset="0.81" stop-color="#D000D4"/>
<stop offset="0.9829" stop-color="#BA00A7"/>
<stop offset="0.983" stop-color="#ED30DA"/>
</linearGradient>
<linearGradient id="paint9_linear_111_29" x1="-420.103" y1="765.485" x2="-420.103" y2="745.36" gradientUnits="userSpaceOnUse">
<stop stop-color="#E214E6"/>
<stop offset="0.238" stop-color="#FC00B5"/>
<stop offset="0.44" stop-color="#7C0E71"/>
<stop offset="0.629" stop-color="#D500E7"/>
<stop offset="0.81" stop-color="#D000D4"/>
<stop offset="0.9829" stop-color="#BA00A7"/>
<stop offset="0.983" stop-color="#ED30DA"/>
</linearGradient>
<linearGradient id="paint10_linear_111_29" x1="-431.887" y1="525.303" x2="-431.887" y2="512.098" gradientUnits="userSpaceOnUse">
<stop stop-color="#E214E6"/>
<stop offset="0.238" stop-color="#FC00B5"/>
<stop offset="0.44" stop-color="#7C0E71"/>
<stop offset="0.629" stop-color="#D500E7"/>
<stop offset="0.81" stop-color="#D000D4"/>
<stop offset="0.9829" stop-color="#BA00A7"/>
<stop offset="0.983" stop-color="#ED30DA"/>
</linearGradient>
<linearGradient id="paint11_linear_111_29" x1="-978.133" y1="256.102" x2="-978.133" y2="249.458" gradientUnits="userSpaceOnUse">
<stop stop-color="#E214E6"/>
<stop offset="0.238" stop-color="#FC00B5"/>
<stop offset="0.44" stop-color="#7C0E71"/>
<stop offset="0.629" stop-color="#D500E7"/>
<stop offset="0.81" stop-color="#D000D4"/>
<stop offset="0.9829" stop-color="#BA00A7"/>
<stop offset="0.983" stop-color="#ED30DA"/>
</linearGradient>
<linearGradient id="paint12_linear_111_29" x1="-432.898" y1="1500.54" x2="-432.898" y2="1460.46" gradientUnits="userSpaceOnUse">
<stop stop-color="#E214E6"/>
<stop offset="0.238" stop-color="#FC00B5"/>
<stop offset="0.44" stop-color="#7C0E71"/>
<stop offset="0.629" stop-color="#D500E7"/>
<stop offset="0.81" stop-color="#D000D4"/>
<stop offset="0.9829" stop-color="#BA00A7"/>
<stop offset="0.983" stop-color="#ED30DA"/>
</linearGradient>
<linearGradient id="paint13_linear_111_29" x1="-1250.79" y1="760.54" x2="-1250.79" y2="741.218" gradientUnits="userSpaceOnUse">
<stop stop-color="#E214E6"/>
<stop offset="0.238" stop-color="#FC00B5"/>
<stop offset="0.44" stop-color="#7C0E71"/>
<stop offset="0.629" stop-color="#D500E7"/>
<stop offset="0.81" stop-color="#D000D4"/>
<stop offset="0.9829" stop-color="#BA00A7"/>
<stop offset="0.983" stop-color="#ED30DA"/>
</linearGradient>
</defs>
</svg>
