<svg width="66" height="37" viewBox="0 0 66 37" fill="none" xmlns="http://www.w3.org/2000/svg">
<path d="M2.00225 2.21936C2.22472 2.36736 2.37303 2.58936 2.44719 2.81136C2.59551 3.03336 2.59551 3.32936 2.59551 3.69936V11.6914C2.59551 12.0614 2.52135 12.4314 2.44719 12.6534C2.37303 12.8754 2.22472 13.0974 2.00225 13.2454C1.77978 13.3934 1.5573 13.4674 1.33483 13.4674C1.11236 13.4674 0.593258 13.5414 0.222472 13.5414C0.148315 13.5414 0.0741573 13.5414 0.0741573 13.6154C0 13.6894 0 13.6894 0 13.7634V14.4294C0 14.5034 0 14.5774 0.0741573 14.5774C0.148315 14.6514 0.148315 14.6514 0.222472 14.6514H7.6382C7.78652 14.6514 7.86067 14.5774 7.86067 14.4294V13.7634C7.86067 13.6154 7.78652 13.5414 7.6382 13.5414H7.1191C6.82247 13.5414 6.6 13.5414 6.30337 13.4674C6.0809 13.4674 5.85843 13.3194 5.63595 13.2454C5.41348 13.0974 5.26517 12.9494 5.19101 12.7274C5.0427 12.5054 5.0427 12.2094 5.0427 11.8394V7.76936C5.0427 7.47336 5.0427 7.10336 5.11685 6.65936C5.11685 6.28936 5.19101 5.91936 5.26517 5.47536C5.33933 5.10536 5.41348 4.66136 5.5618 4.29136C5.71011 3.92136 5.85843 3.55136 6.00674 3.25536C6.15506 2.95936 6.37753 2.73736 6.67416 2.51536C6.89663 2.36736 7.19326 2.21936 7.48989 2.21936C8.00899 2.21936 8.30562 2.36736 8.52809 2.66336C8.6764 2.95936 8.82472 3.40336 8.82472 3.99536C8.82472 4.14336 8.89888 4.21736 9.04719 4.21736C9.34382 4.21736 9.64045 4.14336 9.93708 4.06936C10.2337 3.99536 10.4562 3.84736 10.6787 3.69936C10.9011 3.55136 10.9753 3.32936 11.1236 3.10736C11.1978 2.88536 11.2719 2.58936 11.2719 2.36736C11.2719 1.77536 11.0494 1.33136 10.6045 0.961359C10.1596 0.665359 9.49214 0.443359 8.52809 0.443359C7.93483 0.443359 7.48989 0.517359 7.1191 0.665359C6.74831 0.961359 6.45169 1.18336 6.15506 1.40536C5.85843 1.70136 5.71011 1.99736 5.48764 2.29336C5.41348 2.51536 5.26517 2.73736 5.11685 3.03336C5.11685 3.10736 5.0427 3.10736 4.96854 3.10736C4.89438 3.03336 4.89438 3.03336 4.89438 2.95936V1.92336C4.89438 1.33136 4.37528 0.813359 3.78202 0.813359H0.222472C0.0741573 0.887359 0 0.961359 0 1.03536C0 1.47936 0.370787 1.92336 0.81573 1.92336C1.0382 1.92336 1.18652 1.92336 1.26067 1.92336C1.5573 1.99736 1.77978 2.14536 2.00225 2.21936Z" fill="#27B6C1"/>
<path d="M32.8516 6.65958C30.9235 6.73358 29.4404 7.10358 28.4763 7.76958C27.5123 8.43558 26.9932 9.47158 26.9932 10.8036C26.9932 11.4696 27.0673 12.1356 27.2898 12.6536C27.4381 13.1716 27.7347 13.5416 28.1055 13.9116C28.4763 14.2816 28.9213 14.5036 29.3662 14.6516C29.8853 14.7996 30.4044 14.8736 30.9235 14.8736C31.4426 14.8736 31.8875 14.7996 32.2583 14.7256C32.6291 14.5776 32.9999 14.4296 33.2965 14.2076C33.5932 13.9856 33.8898 13.6896 34.1123 13.3936C34.3347 13.0976 35.0022 12.4316 35.0022 12.4316V13.5416C35.0022 14.1336 35.4471 14.5776 36.0404 14.5776H38.71C38.8583 14.5776 38.9325 14.5036 38.9325 14.3556V13.6896C38.9325 13.6156 38.8583 13.4676 38.71 13.4676C38.4875 13.4676 38.2651 13.4676 38.1168 13.3936C37.8943 13.3196 37.746 13.2456 37.5977 13.0976C37.4493 12.9496 37.3752 12.7276 37.301 12.5056C37.2269 12.2096 37.2269 11.9136 37.2269 11.6176V4.95758C37.2269 4.14358 37.1527 3.47758 36.9302 2.88558C36.7819 2.36758 36.4853 1.92358 36.0404 1.47958C35.6696 1.10958 35.1505 0.887578 34.5572 0.739578C33.9639 0.591578 33.2965 0.517578 32.4808 0.517578C31.8875 0.517578 31.2943 0.591578 30.701 0.665578C30.1819 0.739578 29.737 0.887578 29.2179 1.10958C28.8471 1.25758 28.4763 1.55358 28.2538 1.84958C28.1797 2.21958 28.1055 2.58958 28.1055 3.03358C28.1055 3.62558 28.2538 4.06958 28.6246 4.29158C28.9213 4.51358 29.4404 4.66158 30.0336 4.66158C30.1078 4.66158 30.1819 4.66158 30.1819 4.58758C30.2561 4.51358 30.2561 4.51358 30.2561 4.43958C30.2561 4.14358 30.2561 3.84758 30.3302 3.55158C30.4044 3.25558 30.4786 2.95958 30.701 2.66358C30.8493 2.44158 31.146 2.21958 31.4426 2.07158C31.7392 1.92358 32.11 1.84958 32.6291 1.84958C33.1482 1.84958 33.5932 1.92358 33.8898 2.07158C34.1864 2.21958 34.4089 2.44158 34.6314 2.73758C34.7055 3.10758 34.8538 3.40358 34.8538 3.77358C34.928 4.21758 34.928 4.58758 34.928 5.03158V6.36358C34.928 6.51158 34.8538 6.58558 34.7055 6.58558L32.8516 6.65958ZM34.928 9.69358C34.928 10.2116 34.8538 10.7296 34.7055 11.1736C34.5572 11.6176 34.3347 11.9876 34.0381 12.2836C33.7415 12.5796 33.3707 12.8756 32.9257 13.0236C32.4808 13.1716 32.0359 13.2456 31.5168 13.2456C30.8493 13.2456 30.2561 13.0236 29.9595 12.6536C29.5887 12.2836 29.4404 11.6916 29.4404 10.8776C29.4404 10.4336 29.5145 9.98958 29.6628 9.54558C29.8111 9.17558 30.0336 8.80558 30.3302 8.58358C30.6269 8.28758 30.9977 8.13958 31.5168 7.99158C32.0359 7.84358 32.6291 7.76958 33.2965 7.69558L34.7055 7.62158C34.7797 7.62158 34.8538 7.62158 34.8538 7.69558C34.928 7.76958 34.928 7.76958 34.928 7.84358V9.69358Z" fill="#27B6C1"/>
<path d="M11.9395 1.03667C11.9395 1.48067 12.3102 1.92467 12.7552 1.92467H12.8293C13.0518 1.92467 13.2743 2.07267 13.4968 2.14667C13.7192 2.29467 13.8675 2.44267 13.9417 2.66467C14.0159 3.03467 14.09 3.33067 14.09 3.70067V9.84267C14.09 10.7307 14.1642 11.4707 14.3866 12.1367C14.6091 12.8027 14.8316 13.3207 15.2024 13.6907C15.5732 14.1347 16.0181 14.4307 16.5372 14.5787C17.1305 14.8007 17.7237 14.8747 18.317 14.8747C18.6878 14.8747 19.1327 14.8747 19.5035 14.8007C20.3192 14.6527 21.0608 14.2827 21.5799 13.7647C21.8024 13.5427 22.1732 13.0987 22.3956 12.8027C22.3956 12.8027 22.4698 12.7287 22.5439 12.8027C22.6181 12.8767 22.6181 12.8767 22.6181 12.8767C22.6181 13.8387 23.4338 14.6527 24.3979 14.6527H26.8451C26.9934 14.6527 27.0675 14.5787 27.0675 14.4307V13.7647C27.0675 13.6907 26.9934 13.5427 26.8451 13.5427C26.6226 13.5427 26.326 13.5427 26.1777 13.4687C25.9552 13.4687 25.7327 13.3947 25.5102 13.2467C25.2878 13.0987 25.1395 12.9507 25.0653 12.7287C24.917 12.5067 24.917 12.2107 24.917 11.8407V1.11067C24.917 0.962672 24.8428 0.888672 24.6945 0.888672H20.5417C20.3934 0.888672 20.3192 0.962672 20.3192 1.11067C20.3192 1.55467 20.69 1.99867 21.135 1.99867H21.2091C21.4316 1.99867 21.6541 2.14667 21.8765 2.22067C22.099 2.36867 22.2473 2.59067 22.3215 2.81267C22.4698 3.03467 22.4698 3.40467 22.4698 3.77467V9.10267C22.4698 9.69467 22.3956 10.2127 22.2473 10.8047C22.1732 11.2487 21.9507 11.6927 21.6541 12.1367C21.3574 12.5067 21.0608 12.8027 20.69 12.9507C20.3192 13.1727 19.8001 13.2467 19.2069 13.2467C18.6878 13.2467 18.2428 13.1727 17.9462 13.0247C17.6496 12.8767 17.3529 12.6547 17.1305 12.3587C16.908 11.9887 16.7597 11.6187 16.6855 11.2487C16.6114 10.7307 16.5372 10.2867 16.5372 9.76867V1.11067C16.5372 1.03667 16.5372 0.962672 16.463 0.962672C16.3889 0.888672 16.3889 0.888672 16.3147 0.888672H12.1619C12.0136 0.888672 11.9395 0.962672 11.9395 1.03667Z" fill="#27B6C1"/>
<path d="M53.3937 14.7996C53.097 15.0956 52.8746 15.3916 52.6521 15.7616C52.5038 16.1316 52.3555 16.5756 52.3555 17.0936C52.3555 18.2776 52.8004 19.1656 53.6903 19.8316C54.5802 20.4976 55.915 20.7936 57.6948 20.7936C58.8813 20.7936 59.8454 20.6456 60.7352 20.4236C61.6251 20.2016 62.2926 19.9056 62.8858 19.4616C63.4049 19.0916 63.8499 18.5736 64.1465 17.9816C64.4431 17.3156 64.5914 16.6496 64.5173 15.9836C64.5173 15.4656 64.4431 14.9476 64.2948 14.4296C64.1465 13.9856 63.924 13.5416 63.5532 13.1716C63.1824 12.8016 62.7375 12.5796 62.2184 12.3576C61.6993 12.1356 61.0319 12.0616 60.2903 12.0616H57.3982C57.1757 12.0616 56.9532 12.0616 56.7308 12.0616C56.5824 12.0616 56.36 11.9876 56.2117 11.9136C56.0633 11.8396 55.9892 11.7656 55.915 11.6176C55.8409 11.4696 55.7667 11.3216 55.7667 11.0996C55.7667 10.9516 55.7667 10.7296 55.8409 10.5816C55.915 10.4336 55.9892 10.2856 56.1375 10.1376C56.2858 9.98962 56.36 9.91562 56.5083 9.76762C56.6566 9.69362 56.7307 9.61962 56.8791 9.54562C56.9532 9.54562 57.0274 9.47162 57.1015 9.54562H57.2499C57.324 9.54562 57.4723 9.54562 57.6206 9.54562C57.769 9.54562 57.8431 9.54562 57.9914 9.54562C58.1397 9.54562 58.2139 9.54562 58.3622 9.54562C59.1038 9.54562 59.8454 9.47162 60.3645 9.24962C60.8836 9.02762 61.4027 8.73162 61.7735 8.28762C62.1442 7.91762 62.4409 7.39962 62.6633 6.88162C62.8858 6.28962 62.96 5.69762 62.96 5.10562C62.96 4.36562 62.8858 3.77362 62.6633 3.25562C62.515 2.88562 62.2925 2.51562 62.0701 2.14562C62.0701 2.07162 61.9959 1.99762 62.0701 1.99762C62.0701 1.92362 62.1442 1.92362 62.2184 1.84962C62.2926 1.77562 62.4409 1.77562 62.515 1.70162C62.7375 1.62762 62.8858 1.62762 63.1083 1.62762C63.2566 1.62762 63.4049 1.62762 63.5532 1.70162C63.6274 1.77562 63.7757 1.84962 63.7757 1.92362C63.8499 1.99762 63.8499 2.07162 63.924 2.21962C63.924 2.29362 63.924 2.29362 63.924 2.36762C63.924 2.44162 64.0723 2.58962 64.1465 2.51562C64.2948 2.51562 64.4431 2.44162 64.5173 2.44162C64.6656 2.36762 64.8139 2.29362 64.9622 2.14562C65.0364 1.99762 65.1847 1.84962 65.1847 1.70162C65.2588 1.77562 65.2588 1.55362 65.2588 1.40562C65.2588 1.25762 65.2588 1.03562 65.1847 0.887621C65.1105 0.739621 65.0364 0.591621 64.8881 0.443621C64.7397 0.295621 64.5914 0.221621 64.4431 0.147621C64.2206 0.0736206 63.9982 -0.000379443 63.7757 0.0736206C63.4791 0.0736206 63.2566 0.147621 62.96 0.221621C62.7375 0.295621 62.515 0.443621 62.2926 0.591621C62.0701 0.739621 61.9218 0.887621 61.6993 1.03562C61.551 1.10962 61.4768 1.25762 61.4027 1.33162C61.3285 1.40562 61.2543 1.40562 61.106 1.33162C60.9577 1.25762 60.8836 1.18362 60.7352 1.10962C60.5128 1.03562 60.2903 0.887621 60.0678 0.813621C59.7712 0.739621 59.5487 0.665621 59.2521 0.591621C58.9555 0.517621 58.6588 0.517621 58.3622 0.517621C57.5465 0.517621 56.8791 0.591621 56.2117 0.813621C55.6184 1.03562 55.0993 1.33162 54.7285 1.77562C54.2836 2.21962 53.9869 2.73762 53.8386 3.25562C53.6161 3.84762 53.542 4.51362 53.542 5.25362C53.542 5.69762 53.6161 6.06762 53.6903 6.51162C53.7645 6.88162 53.9128 7.25162 54.1352 7.62162C54.3577 7.99162 54.5802 8.28762 54.8768 8.50962C55.0993 8.65762 55.2476 8.80562 55.4701 8.95362C55.5442 9.02762 55.6184 9.10162 55.6184 9.17562C55.6184 9.24962 55.6184 9.32362 55.5442 9.39762C55.1734 9.69362 54.8027 9.98962 54.6543 10.2856C54.3577 10.6556 54.2836 11.0996 54.2836 11.6176C54.2836 11.8396 54.3577 12.1356 54.4319 12.3576C54.506 12.5796 54.6543 12.8016 54.7285 12.9496C54.8768 13.0976 55.0251 13.2456 55.1734 13.3936C55.2476 13.4676 55.3218 13.5416 55.3959 13.5416C55.4701 13.5416 55.4701 13.6156 55.4701 13.6156C55.4701 13.6896 55.3959 13.6896 55.3959 13.6896C55.0993 13.7636 54.7285 13.8376 54.4319 13.9856C53.9869 14.3556 53.6903 14.5776 53.3937 14.7996ZM56.5083 2.73762C56.8791 2.14562 57.4723 1.92362 58.2881 1.92362C59.1038 1.92362 59.697 2.21962 60.0678 2.73762C60.4386 3.25562 60.5869 4.14362 60.5869 5.32762C60.5869 5.84562 60.5869 6.28962 60.4386 6.80762C60.3645 7.17762 60.2161 7.47362 60.0678 7.84362C59.9195 8.06562 59.6229 8.28762 59.3263 8.43562C59.0296 8.58362 58.6588 8.65762 58.2881 8.65762C57.4723 8.65762 56.8791 8.43562 56.5083 7.91762C56.1375 7.39962 55.9892 6.58562 55.9892 5.47562C55.9892 4.14362 56.1375 3.25562 56.5083 2.73762ZM54.7285 15.6876C54.8768 15.3916 55.0993 15.1696 55.3218 14.9476C55.6184 14.7996 55.915 14.6516 56.2117 14.5776C56.5824 14.5036 56.8791 14.5036 57.2499 14.5036H59.7712C60.142 14.5036 60.5128 14.5036 60.8836 14.5776C61.1802 14.6516 61.4768 14.7256 61.6993 14.8736C61.9218 15.0216 62.0701 15.2436 62.2184 15.4656C62.3667 15.6876 62.3667 16.0576 62.3667 16.4276C62.3667 16.8716 62.2926 17.2416 62.1442 17.6856C61.9959 18.0556 61.7735 18.4256 61.4027 18.6476C61.0319 18.9436 60.5869 19.1656 59.9937 19.3136C59.4004 19.4616 58.6588 19.5356 57.6948 19.5356C57.0274 19.5356 56.5083 19.4616 56.0633 19.3136C55.6184 19.1656 55.3218 19.0176 55.0251 18.7956C54.8027 18.5736 54.5802 18.2776 54.506 17.9816C54.4319 17.6116 54.3577 17.3156 54.3577 16.9456C54.4319 16.4276 54.5802 15.9836 54.7285 15.6876Z" fill="#27B6C1"/>
<path d="M50.6497 3.3298C50.4272 2.7378 50.1305 2.2198 49.7598 1.7758C49.389 1.4058 48.944 1.0358 48.4249 0.887797C47.8317 0.665797 47.2384 0.591797 46.6452 0.591797C46.2744 0.591797 45.8294 0.591797 45.4586 0.665797C45.0879 0.739797 44.7171 0.813797 44.4204 1.0358C44.0496 1.2578 43.753 1.4798 43.4564 1.7758C43.3081 1.9978 42.9373 2.3678 42.7148 2.6638C42.7148 2.7378 42.6407 2.7378 42.5665 2.7378C42.4923 2.7378 42.4923 2.6638 42.4923 2.5898V1.9978C42.4923 1.3318 41.9732 0.813797 41.3058 0.813797H38.1912C38.0429 0.813797 37.9688 0.887797 37.9688 1.0358C37.9688 1.4798 38.3395 1.9238 38.7845 1.9238H38.8586C39.0811 1.9978 39.3036 2.0718 39.5261 2.1458C39.7485 2.2938 39.8968 2.4418 39.971 2.6638C40.1193 2.8858 40.1193 3.1818 40.1193 3.5518V14.2818C40.1193 14.4298 40.1935 14.5038 40.3418 14.5038H44.4946C44.6429 14.5038 44.7171 14.4298 44.7171 14.2818V13.6158C44.7171 13.5418 44.6429 13.3938 44.4946 13.3938C44.2721 13.3938 43.9755 13.3938 43.8272 13.3198C43.6047 13.3198 43.3822 13.2458 43.1598 13.0978C42.9373 12.9498 42.789 12.8018 42.7148 12.5798C42.5665 12.3578 42.5665 12.0618 42.5665 11.6918V6.4378C42.5665 5.9198 42.6407 5.4018 42.7148 4.8838C42.789 4.4398 43.0114 3.9958 43.2339 3.5518C43.4564 3.1818 43.8272 2.8858 44.198 2.6638C44.5687 2.4418 45.0878 2.2938 45.6811 2.2938C46.2002 2.2938 46.6452 2.3678 47.0159 2.5158C47.3867 2.6638 47.6834 2.8858 47.9058 3.1818C48.1283 3.4778 48.2766 3.9218 48.3508 4.2918C48.4249 4.8098 48.4991 5.2538 48.4991 5.7718V14.4298C48.4991 14.5778 48.5732 14.6518 48.7216 14.6518H52.8002C52.9485 14.6518 53.0227 14.5778 53.0227 14.4298V13.7638C53.0227 13.6898 52.9485 13.5418 52.8002 13.5418C52.5777 13.5418 52.2811 13.5418 52.1328 13.4678C51.9103 13.4678 51.6879 13.3198 51.5395 13.2458C51.3912 13.0978 51.2429 12.8758 51.1687 12.6538C51.0946 12.4318 51.0204 12.0618 51.0204 11.6918V5.6238C50.9463 4.7358 50.798 3.9958 50.6497 3.3298Z" fill="#27B6C1"/>
<path d="M11.8652 30.1923C11.7169 29.7483 11.4944 29.3043 11.1236 29.0083C10.7528 28.6383 10.3079 28.3423 9.78876 28.1943C9.26966 27.9723 8.60225 27.8983 7.86067 27.8983H4.96854C4.74607 27.8983 4.5236 27.8983 4.37528 27.8983C4.22697 27.8983 4.00449 27.8243 3.85618 27.7503C3.70786 27.6763 3.63371 27.6023 3.55955 27.4543C3.48539 27.3063 3.41124 27.1583 3.41124 26.9363C3.41124 26.7883 3.41124 26.5663 3.48539 26.4183C3.55955 26.2703 3.63371 26.1223 3.78202 25.9743C3.93034 25.8263 4.00449 25.7523 4.15281 25.6043C4.30112 25.5303 4.44944 25.3823 4.59775 25.3083C4.67191 25.3083 4.74607 25.3083 4.89438 25.3083C5.0427 25.3083 5.11685 25.3083 5.26517 25.3083C5.41348 25.3083 5.48764 25.3083 5.63595 25.3083C5.78427 25.3083 5.85843 25.3083 6.00674 25.3083C6.74831 25.3083 7.48989 25.2343 8.00899 25.0123C8.52809 24.7903 9.04719 24.4943 9.41798 24.1243C9.78876 23.7543 10.0854 23.2363 10.3079 22.7183C10.5303 22.1263 10.6045 21.5343 10.6045 20.9423C10.6045 20.2023 10.5303 19.6103 10.3079 19.0923C10.0854 18.5743 9.78876 18.0563 9.41798 17.6123C9.34382 17.5383 9.26966 17.4643 9.19551 17.3903C9.12135 17.3163 9.12135 17.2423 9.19551 17.1683C9.26966 17.0943 9.34382 16.9463 9.41798 16.8723C9.56629 16.7243 9.71461 16.5763 9.86292 16.5023C10.0112 16.4283 10.1596 16.3543 10.2337 16.3543C10.382 16.3543 10.4562 16.3543 10.5303 16.4283C10.6045 16.5023 10.6787 16.5023 10.7528 16.5763L10.827 16.6503C10.9011 16.7243 11.0494 16.7243 11.1236 16.7243C11.2719 16.6503 11.3461 16.5763 11.4202 16.4283C11.4944 16.2803 11.5685 16.1323 11.6427 15.9843C11.6427 15.8363 11.6427 15.6883 11.6427 15.4663C11.6427 15.3183 11.5685 15.0963 11.4202 14.9483C11.3461 14.8003 11.1978 14.6523 11.1236 14.5783C10.9753 14.5043 10.827 14.3563 10.6787 14.3563C10.5303 14.2823 10.3079 14.2823 10.1596 14.3563C9.93708 14.4303 9.71461 14.5043 9.56629 14.5783C9.34382 14.7263 9.12135 14.8743 8.97303 15.0963C8.82472 15.3183 8.6764 15.5403 8.52809 15.7623C8.45393 15.9843 8.30562 16.2063 8.23146 16.4283V16.5023C8.23146 16.5763 8.1573 16.5763 8.1573 16.6503C8.08315 16.6503 8.08315 16.6503 8.00899 16.6503C7.93483 16.6503 7.86067 16.5763 7.71236 16.5763C7.41573 16.5023 7.19326 16.4283 6.89663 16.3543C6.6 16.2803 6.30337 16.2803 6.00674 16.2803C5.19101 16.2803 4.5236 16.3543 3.93034 16.5763C3.33708 16.7983 2.81798 17.0943 2.44719 17.5383C2.0764 17.9823 1.70562 18.5003 1.5573 19.0183C1.33483 19.6103 1.26067 20.2763 1.26067 21.0163C1.26067 21.4603 1.33483 21.8303 1.40899 22.2743C1.48315 22.6443 1.63146 23.0143 1.85393 23.3843C2.0764 23.7543 2.29888 24.0503 2.59551 24.2723C2.89213 24.5683 3.18876 24.7163 3.55955 24.8643C2.96629 25.2343 2.52135 25.6043 2.29888 25.9743C1.77978 26.6403 1.70562 27.4543 1.92809 28.1203C2.00225 28.3423 2.15056 28.5643 2.22472 28.7123C2.37303 28.8603 2.52135 29.0083 2.66966 29.1563C2.81798 29.3043 2.96629 29.3783 3.18876 29.4523C2.74382 29.5263 2.37303 29.6743 2.00225 29.8223C1.63146 29.9703 1.26067 30.1923 0.964045 30.4883C0.667416 30.7843 0.444944 31.0803 0.296629 31.4503C0.0741573 31.8943 0 32.3383 0 32.7823C0 33.9663 0.444944 34.8543 1.33483 35.5203C2.22472 36.1863 3.55955 36.4823 5.33933 36.4823C6.52584 36.4823 7.48989 36.3343 8.37978 36.1123C9.19551 35.8903 9.93708 35.5943 10.5303 35.1503C11.0494 34.7803 11.4944 34.2623 11.791 33.6703C12.0876 33.0783 12.236 32.3383 12.1618 31.6723C12.0876 31.2283 12.0135 30.7103 11.8652 30.1923ZM4.07865 18.4263C4.44944 17.8343 5.0427 17.6123 5.85843 17.6123C6.67416 17.6123 7.26742 17.9083 7.6382 18.4263C8.00899 18.9443 8.1573 19.8323 8.1573 21.0163C8.1573 21.5343 8.1573 21.9783 8.00899 22.4963C7.93483 22.8663 7.78652 23.1623 7.6382 23.4583C7.48989 23.6803 7.19326 23.9023 6.97079 24.0503C6.67416 24.1983 6.30337 24.2723 5.93258 24.2723C5.11685 24.2723 4.5236 24.0503 4.15281 23.5323C3.70786 22.9403 3.55955 22.1263 3.55955 21.0163C3.55955 19.8323 3.70787 19.0183 4.07865 18.4263ZM9.78876 33.3743C9.64045 33.7443 9.41798 34.1143 9.04719 34.3363C8.6764 34.6323 8.23146 34.8543 7.6382 35.0023C7.04494 35.1503 6.30337 35.2243 5.33933 35.2243C4.67191 35.2243 4.15281 35.1503 3.70787 35.0023C3.26292 34.8543 2.96629 34.7063 2.66966 34.4843C2.44719 34.2623 2.22472 33.9663 2.15056 33.6703C2.0764 33.3003 2.00225 33.0043 2.00225 32.6343C2.00225 32.1163 2.0764 31.6723 2.22472 31.3763C2.37303 31.0803 2.59551 30.8583 2.89213 30.6363C3.18876 30.4883 3.48539 30.3403 3.78202 30.2663C4.15281 30.1923 4.44944 30.1923 4.82022 30.1923H7.41573C7.78652 30.1923 8.1573 30.1923 8.52809 30.2663C8.82472 30.3403 9.12135 30.4143 9.34382 30.5623C9.56629 30.7103 9.71461 30.9323 9.86292 31.1543C10.0112 31.3763 10.0112 31.7463 10.0112 32.1163C10.0112 32.5603 9.93708 33.0043 9.78876 33.3743Z" fill="#27B6C1"/>
<path d="M11.9395 16.7982C11.9395 17.2422 12.3102 17.6862 12.7552 17.6862H12.8293C13.0518 17.6862 13.2743 17.8342 13.4968 17.9082C13.7192 18.0562 13.8675 18.2042 13.9417 18.4262C14.09 18.6482 14.09 18.9442 14.09 19.3142V25.4562C14.09 26.3442 14.1642 27.0842 14.3866 27.7502C14.6091 28.4162 14.8316 28.9342 15.2024 29.3042C15.5732 29.7482 16.0181 30.0442 16.5372 30.1922C17.1305 30.4142 17.7237 30.4882 18.317 30.4882C18.6878 30.4882 19.1327 30.4882 19.5035 30.4142C20.3192 30.2662 21.0608 29.8962 21.5799 29.3782C21.8024 29.1562 22.1732 28.7122 22.3956 28.4162C22.3956 28.4162 22.4698 28.3422 22.5439 28.4162C22.6181 28.4902 22.6181 28.4902 22.6181 28.4902C22.6181 28.9342 22.7664 29.4522 23.1372 29.7482C23.4338 30.1182 23.9529 30.2662 24.3979 30.2662H26.8451C26.9934 30.2662 27.0675 30.1922 27.0675 30.0442V29.3782C27.0675 29.3042 26.9934 29.1562 26.8451 29.1562C26.6226 29.1562 26.326 29.1562 26.1777 29.0822C25.9552 29.0822 25.7327 29.0082 25.5102 28.8602C25.2878 28.7122 25.1395 28.5642 25.0653 28.3422C24.917 28.1202 24.917 27.8242 24.917 27.4542V16.7982C24.917 16.7242 24.917 16.6502 24.8428 16.6502C24.7687 16.5762 24.7687 16.5762 24.6945 16.5762H20.5417C20.4675 16.5762 20.3934 16.5762 20.3934 16.6502C20.3192 16.7242 20.3192 16.7242 20.3192 16.7982C20.3192 17.2422 20.69 17.6862 21.135 17.6862H21.2091C21.4316 17.6862 21.6541 17.8342 21.8765 17.9082C22.099 18.0562 22.2473 18.2782 22.3215 18.5002C22.4698 18.7222 22.4698 19.0922 22.4698 19.4622V24.7902C22.4698 25.3822 22.3956 25.9002 22.2473 26.4922C22.1732 26.9362 21.9507 27.3802 21.6541 27.8242C21.3574 28.1942 21.0608 28.4902 20.69 28.6382C20.3192 28.8602 19.8001 28.9342 19.2069 28.9342C18.6878 28.9342 18.2428 28.8602 17.9462 28.7122C17.6496 28.5642 17.3529 28.3422 17.1305 28.0462C16.908 27.6762 16.7597 27.3062 16.6855 26.9362C16.6114 26.4182 16.5372 25.9742 16.5372 25.4562V16.7982C16.5372 16.6502 16.463 16.5762 16.3147 16.5762H12.1619C12.0136 16.5762 11.9395 16.6502 11.9395 16.7982Z" fill="#27B6C1"/>
<path d="M36.6338 16.7973C36.1889 16.5013 35.5214 16.2793 34.5574 16.2793C33.9641 16.2793 33.5192 16.3533 33.1484 16.5013C32.7776 16.6493 32.481 16.8713 32.1844 17.0933C31.9619 17.3893 31.7394 17.6853 31.5169 17.9813C31.4428 18.1293 31.2945 18.4253 31.1462 18.6473C31.1462 18.7213 31.072 18.7213 30.9978 18.7213C30.9237 18.7213 30.9237 18.6473 30.9237 18.5733V17.6113C30.9237 17.0193 30.4046 16.5013 29.8113 16.5013H26.2518C26.1035 16.5013 26.0293 16.5753 26.0293 16.7233C26.0293 17.1673 26.4001 17.6113 26.845 17.6113C27.0675 17.6113 27.2158 17.6113 27.29 17.6113C27.5124 17.6113 27.7349 17.7593 27.9574 17.8333C28.1799 17.9813 28.3282 18.1293 28.4023 18.3513C28.5506 18.5733 28.5506 18.8693 28.5506 19.2393V29.9693C28.5506 30.1173 28.6248 30.1913 28.7731 30.1913H33.5192C33.6675 30.1913 33.7417 30.1173 33.7417 29.9693V29.3033C33.7417 29.1553 33.6675 29.0813 33.5192 29.0813H33.0001C32.7035 29.0813 32.481 29.0813 32.1844 29.0073C31.9619 29.0073 31.7394 28.8593 31.5169 28.7853C31.2945 28.6373 31.1462 28.4893 31.072 28.2673C30.9237 28.0453 30.9237 27.7493 30.9237 27.3793V23.3093C30.9237 23.0133 30.9237 22.6433 30.9978 22.1993C30.9978 21.8293 31.072 21.3853 31.1462 21.0153C31.2203 20.6453 31.2945 20.2013 31.4428 19.8313C31.5911 19.4613 31.7394 19.1653 31.8877 18.7953C32.036 18.4993 32.2585 18.2773 32.5551 18.0553C32.7776 17.9073 33.0742 17.7593 33.3709 17.7593C33.89 17.7593 34.1866 17.9073 34.4091 18.2033C34.5574 18.4993 34.7057 18.9433 34.7057 19.5353C34.7057 19.6833 34.7799 19.7573 34.9282 19.7573C35.2248 19.7573 35.5214 19.6833 35.8181 19.6093C36.1147 19.5353 36.3372 19.3873 36.5596 19.2393C36.7821 19.0913 36.8563 18.8693 37.0046 18.6473C37.0787 18.4253 37.1529 18.1293 37.1529 17.9073C37.3012 17.6113 37.0787 17.1673 36.6338 16.7973Z" fill="#27B6C1"/>
<path d="M52.7261 29.3042C52.5036 29.3042 52.2811 29.3042 52.207 29.2302C51.9845 29.2302 51.762 29.1562 51.5395 29.0082C51.3171 28.8602 51.1688 28.7122 51.0946 28.4902C50.9463 28.2682 50.9463 27.9722 50.9463 27.6022V16.7982C50.9463 16.7242 50.9463 16.6502 50.8721 16.6502C50.798 16.5762 50.798 16.5762 50.7238 16.5762H46.571C46.4227 16.5762 46.3485 16.6502 46.3485 16.7982C46.3485 17.2422 46.7193 17.6862 47.1643 17.6862H47.2384C47.4609 17.6862 47.6834 17.8342 47.9058 17.9082C48.1283 18.0562 48.2766 18.2782 48.3508 18.5002C48.4991 18.7222 48.4991 19.0922 48.4991 19.4622V24.7902C48.4991 25.3822 48.4249 25.9002 48.2766 26.4922C48.2025 26.9362 47.98 27.3802 47.6834 27.8242C47.3867 28.1942 47.0901 28.4902 46.7193 28.6382C46.3485 28.8602 45.8294 28.9342 45.2362 28.9342C44.7171 28.9342 44.2721 28.8602 43.9755 28.7122C43.6789 28.5642 43.3822 28.3422 43.1598 28.0462C42.9373 27.6762 42.789 27.3062 42.7148 26.9362C42.6407 26.4182 42.5665 25.9742 42.5665 25.4562V16.7982C42.5665 16.6502 42.4923 16.5762 42.344 16.5762H38.1912C38.0429 16.5762 37.9688 16.6502 37.9688 16.7982C37.9688 17.2422 38.3395 17.6862 38.7845 17.6862H38.8586C39.0811 17.6862 39.3036 17.8342 39.5261 17.9082C39.7485 18.0562 39.8968 18.2042 39.971 18.4262C40.1193 18.6482 40.1193 18.9442 40.1193 19.3142V25.4562C40.1193 26.3442 40.1935 27.0842 40.4159 27.7502C40.6384 28.4162 40.8609 28.9342 41.2317 29.3042C41.6025 29.7482 42.0474 30.0442 42.5665 30.1922C43.1598 30.4142 43.753 30.4882 44.3463 30.4882C44.7171 30.4882 45.162 30.4882 45.5328 30.4142C46.3485 30.2662 47.0901 29.8962 47.6092 29.3782C47.8317 29.1562 48.2025 28.7122 48.4249 28.4162C48.4249 28.4162 48.4991 28.3422 48.5732 28.4162C48.6474 28.4902 48.6474 28.4902 48.6474 28.4902C48.6474 28.9342 48.7957 29.4522 49.1665 29.7482C49.4631 30.1182 49.9822 30.2662 50.4272 30.2662H64.3688C64.4429 30.2662 64.5171 30.1922 64.5171 30.1182V29.3782C64.5171 29.3042 64.4429 29.2302 64.3688 29.2302L52.7261 29.3042Z" fill="#27B6C1"/>
</svg>
